<?xml version="1.0" encoding="UTF-8"?>
<svg viewBox="0 0 2200 2370" version="1.1" xmlns="http://www.w3.org/2000/svg" xmlns:xlink="http://www.w3.org/1999/xlink">
    <!-- Generator: Sketch 47.1 (45422) - http://www.bohemiancoding.com/sketch -->
    <title>Group</title>
    <desc>Created with Sketch.</desc>
    <defs></defs>
    <g id="Page-1" stroke="none" stroke-width="1" fill="none" fill-rule="evenodd">
        <g id="Group" transform="translate(0.000000, 4.000000)">
            <path d="M1705.33,1089.15 C1709.71,1089.43 1714.64,1089.57 1718.42,1092.15 C1721.72,1094.37 1723.82,1097.94 1725.73,1101.34 C1727.84,1105.09 1729.68,1108.99 1731.93,1112.67 C1733.61,1115.42 1739.28,1121.36 1737.71,1124.85 C1736.58,1127.36 1730.54,1129.24 1728.16,1130.03 C1723.34,1131.63 1719.09,1129.3 1714.54,1127.64 C1709.34656,1125.82355 1704.26445,1123.70322 1699.32,1121.29 C1696.53,1119.88 1689.06,1117.02 1688.57,1113.75 L1688.57,1118 C1688.87,1116.05 1692.46,1113.45 1693.98,1111.87 L1701.77,1103.74 C1708.89,1096.3 1697.59,1084.97 1690.46,1092.43 L1680.08,1103.28 C1677.08,1106.44 1674.01,1109.28 1673.15,1113.76 C1671.24,1123.69 1681.53,1129.89 1688.91,1133.89 C1696.77,1138.15 1705.23,1141.27 1713.63,1144.27 C1718.05,1145.85 1722.3,1147.1 1727.05,1146.59 C1731.8,1146.08 1736.05,1144.16 1740.28,1142.17 C1748.11,1138.48 1754.48,1132.06 1753.86,1122.78 C1753.28,1114.11 1747.24,1107.58 1743.29,1100.26 C1739.65,1093.51 1736.29,1086.34 1730.29,1081.26 C1723.16,1075.09 1714.39,1073.83 1705.29,1073.26 C1695.01,1072.59 1695.05,1088.6 1705.29,1089.26 L1705.33,1089.15 Z" id="Shape" fill="#231F20" fill-rule="nonzero"></path>
            <path d="M1704.23,1095.49 C1703.21667,1096.25 1703.05667,1096.39667 1703.75,1095.93 C1704.01667,1095.77 1704.29,1095.62 1704.57,1095.48 L1703.52,1095.92 C1703.81333,1095.81333 1704.11,1095.71667 1704.41,1095.63 C1704.71,1095.54333 1704.93667,1095.49 1705.09,1095.47 C1705.71667,1095.35 1705.38333,1095.39 1704.09,1095.59 C1704.70847,1095.65156 1705.33153,1095.65156 1705.95,1095.59 C1710.13,1095.95 1714.13,1091.66 1713.95,1087.59 C1713.74,1082.95 1710.43,1079.97 1705.95,1079.59 C1701.02,1079.17 1696.67,1081.18 1692.95,1084.14 C1691.45,1085.32 1690.61,1087.99 1690.61,1089.8 C1690.62341,1091.91935 1691.4629,1093.94991 1692.95,1095.46 C1694.45158,1096.95991 1696.48763,1097.80167 1698.61,1097.8 C1700.70605,1097.67834 1702.69997,1096.854 1704.27,1095.46 L1704.23,1095.49 Z" id="Shape" fill="#231F20" fill-rule="nonzero"></path>
            <path d="M1716.14,1094.88 C1714.59,1100.52 1716.27,1105.88 1719.96,1110.29 C1722.49,1113.29 1726.62,1115.64 1727.1,1119.91 C1727.58,1124.18 1730.43,1127.91 1735.1,1127.91 C1739.1,1127.91 1743.58,1124.23 1743.1,1119.91 C1742.54,1114.91 1741.27,1110.53 1738.25,1106.48 C1736.9992,1104.85368 1735.61796,1103.33198 1734.12,1101.93 C1733.30797,1101.28978 1732.57901,1100.55074 1731.95,1099.73 C1731.62,1099.16 1731.66,1098.8 1731.57,1099.13 C1734.3,1089.19 1718.87,1084.94 1716.14,1094.88 Z" id="Shape" fill="#231F20" fill-rule="nonzero"></path>
            <path d="M1742.32,1119.36 C1733.86,1119.77 1725.97,1117.97 1718,1115.25 C1714.14,1113.93 1710.34,1112.44 1706.56,1110.92 C1705.07,1110.32 1703.56,1109.75 1702.13,1109.06 C1701.12346,1108.58796 1700.14213,1108.06392 1699.19,1107.49 C1698.52333,1107.00333 1698.55333,1106.93667 1699.28,1107.29 L1699.28,1111.58 L1699.57,1110.42 L1697.51,1113.95 L1696.14,1114.64 L1692.14,1113.55 C1693.39333,1114.07667 1693.65,1114.19667 1692.91,1113.91 C1698.5,1122.51 1712.36,1114.5 1706.73,1105.83 C1702.48,1099.29 1693.49,1095.42 1686.99,1101.68 C1680.04,1108.37 1684.99,1117.68 1691.89,1121.76 C1699,1125.94 1707.76,1128.76 1715.58,1131.31 C1724.18931,1134.28084 1733.26663,1135.66327 1742.37,1135.39 C1752.62,1134.9 1752.68,1118.89 1742.37,1119.39 L1742.32,1119.36 Z" id="Shape" fill="#231F20" fill-rule="nonzero"></path>
            <path d="M1691.99,1113.71 C1699.71,1125.48 1714.73,1123.38 1726.99,1122.01 C1731.28,1121.53 1734.99,1118.68 1734.99,1114.01 C1734.99,1110.01 1731.31,1105.52 1726.99,1106.01 C1722.67,1106.5 1718.6,1106.81 1714.38,1106.91 C1712.27,1106.96 1707.25,1107.78 1705.83,1105.63 C1700.21,1097.05 1686.35,1105.06 1692.01,1113.71 L1691.99,1113.71 Z" id="Shape" fill="#231F20" fill-rule="nonzero"></path>
            <path d="M1374.06,1170.26 C1373.88363,1172.78209 1373.49221,1175.28452 1372.89,1177.74 C1372.47,1179.45 1371.97,1183.65 1370.55,1184.74 C1369.13,1185.83 1362.31,1183.38 1360.25,1182.83 C1352.07,1180.63 1343.33,1177.51 1338.61,1169.98 C1336.47689,1166.34048 1335.00421,1162.3524 1334.26,1158.2 C1333.8,1156.02 1333.44,1153.82 1333.18,1151.6 C1333.03,1150.31 1332.9,1149.02 1332.78,1147.73 C1332.57,1145.57 1333.34,1145.19 1331.22,1146.73 C1327.57,1149.42 1332.33,1147.25 1333.39,1146.91 C1334.45,1146.57 1335.75,1146.18 1336.93,1145.84 C1339.59667,1145.06667 1342.28,1144.36333 1344.98,1143.73 C1350.67105,1142.37817 1356.43343,1141.34655 1362.24,1140.64 C1366.02,1140.19 1369.24,1137.75 1369.24,1133.64 C1369.24,1130.2 1365.99,1126.19 1362.24,1126.64 C1353.95865,1127.57964 1345.75005,1129.07637 1337.67,1131.12 C1331.15,1132.81 1320.57,1134.12 1318.78,1141.97 C1317.39,1148.06 1319.56,1156.65 1320.91,1162.64 C1322.28087,1169.29433 1325.16157,1175.54497 1329.33,1180.91 C1337.72,1191.28 1351.26,1195.38 1363.82,1198.08 C1370.53,1199.52 1377.66,1199.37 1381.82,1193.08 C1385.98,1186.79 1387.46,1177.74 1388.02,1170.21 C1388.69,1161.21 1374.69,1161.27 1374.02,1170.21 L1374.06,1170.26 Z" id="Shape" fill="#231F20" fill-rule="nonzero"></path>
            <path d="M1355.55,1131.2 L1340.12,1137.91 C1335.75,1139.81 1329.4,1141.29 1326.88,1145.78 C1325.72754,1147.86385 1325.48291,1150.32997 1326.20352,1152.59962 C1326.92414,1154.86926 1328.54655,1156.74261 1330.69,1157.78 C1335.41,1160.16 1342.31,1159.37 1347.45,1159.67 L1342.5,1147.72 C1339.63699,1150.58616 1336.46416,1153.1251 1333.04,1155.29 C1327.67,1158.69 1329.13,1166 1334.71,1168.08 L1340.71,1170.34 L1343.3,1171.34 C1344.96667,1172.17333 1344.89333,1171.72333 1343.08,1169.99 L1343.79,1164.6 C1343.59,1165.03 1341.7,1164.92 1341.5,1164.89 C1332.62,1163.45 1329.28,1175.16 1337.78,1178.39 C1354.32864,1184.62578 1371.69124,1188.43848 1389.33,1189.71 L1385.8,1176.71 C1375.93,1183.31 1364.01,1189.48 1351.72,1187.81 C1342.23,1186.52 1333.64,1180.09 1331.72,1170.49 C1329.97,1161.66 1316.47,1165.4 1318.22,1174.21 C1320.98,1188.13 1333.49,1198.44 1347.08,1201.13 C1363.39,1204.37 1379.5,1197.73 1392.85,1188.79 C1395.44706,1187.12693 1396.66416,1183.97063 1395.85602,1180.99448 C1395.04788,1178.01834 1392.40154,1175.91111 1389.32,1175.79 C1372.93902,1174.50402 1356.82952,1170.85977 1341.49,1164.97 L1337.77,1178.47 C1344.9,1179.62 1356.6,1177.62 1356.82,1168.21 C1357.04,1159.21 1344.75,1157.07 1338.39,1154.69 L1340.06,1167.48 C1344.50355,1164.6848 1348.62807,1161.41201 1352.36,1157.72 C1356.87,1153.25 1353.3,1146.12 1347.41,1145.77 C1343.84,1145.56 1338.41,1146.06 1335.2,1144.77 L1339.38,1147.99 L1338.75,1147.14 L1339.46,1152.53 C1338.02667,1154.18333 1338.3,1154.39333 1340.28,1153.16 L1343.71,1151.67 L1349.71,1149.06 L1362.57,1143.47 C1366.06,1141.95 1366.79,1136.9 1365.08,1133.89 C1363.08,1130.29 1358.95,1129.89 1355.5,1131.38 L1355.55,1131.2 Z" id="Shape" fill="#231F20" fill-rule="nonzero"></path>
            <path d="M1393.76,1171.68 C1391.37,1170.27 1389.96,1167.63 1387.93,1165.76 C1385.54509,1163.47934 1382.51985,1161.98243 1379.26,1161.47 C1371.36,1160.26 1362.7,1161.24 1354.71,1161.27 C1345.71,1161.27 1345.71,1175.27 1354.71,1175.27 C1360.21,1175.27 1367.15,1176.49 1371.97,1173.27 C1373.65,1172.14 1376.25,1166.91 1377.92,1169.92 C1382.31,1177.87 1393.98,1170.87 1390.01,1162.85 C1383.72,1150.15 1378.17,1136.53 1370.62,1124.54 C1365.83,1116.93 1353.72,1123.95 1358.53,1131.61 C1366.08,1143.61 1371.63,1157.23 1377.92,1169.92 L1390.01,1162.85 C1386.70863,1156.96923 1379.96681,1153.9184 1373.37,1155.32 C1369.84,1156.11 1368.05,1158.09 1365.32,1160.2 C1363.6,1161.52 1365.74,1161.3 1362.56,1161.29 L1354.72,1161.29 L1354.72,1175.29 C1361.6,1175.29 1369.11,1174.39 1375.93,1175.22 C1380.1,1175.72 1382.93,1181.59 1386.7,1183.79 C1394.47,1188.38 1401.53,1176.29 1393.77,1171.7 L1393.76,1171.68 Z" id="Shape" fill="#231F20" fill-rule="nonzero"></path>
            <path d="M1363.65,1135.3 C1372.1,1134.77 1380.48,1138.3 1384.99,1145.74 C1387.66,1150.14 1388.99,1155.34 1389.99,1160.33 C1390.54627,1163.00972 1390.93369,1165.72172 1391.15,1168.45 C1391.27,1169.97 1391.34,1171.5 1391.37,1173.03 C1391.37,1173.64333 1391.37,1174.25333 1391.37,1174.86 C1391.14333,1176.62 1391.81,1176.28667 1393.37,1173.86 L1402.95,1176.37 C1399.04,1167.6 1398.12,1157.82 1394.71,1148.86 C1391.47,1140.35 1386.71,1132.96 1378.97,1127.91 C1371.41,1122.97 1364.38,1135.08 1371.9,1140 C1378.28,1144.17 1381.17,1151.58 1383.17,1158.61 C1385.57,1167.01 1387.27,1175.4 1390.86,1183.43 C1392.53,1187.17 1397.29,1187.29 1400.44,1185.94 C1407.72,1182.83 1405.44,1170.94 1404.77,1164.84 C1403.77,1156.69 1401.99,1148.51 1398.36,1141.11 C1392.06,1128.27 1377.82,1120.45 1363.65,1121.34 C1354.7,1121.9 1354.65,1135.9 1363.65,1135.34 L1363.65,1135.3 Z" id="Shape" fill="#231F20" fill-rule="nonzero"></path>
            <path d="M1727.71,1073.75 C1722.83,1070.51 1716.66,1064.44 1710.26,1066.38 C1707.33,1067.27 1706.26,1069.79 1703.92,1071.25 C1701.92,1072.51 1698.92,1072.36 1696.68,1073.71 C1691.2,1077.07 1687.53,1084.13 1684.06,1089.33 C1680.06,1095.39 1676.23,1101.62 1672.66,1107.97 C1668.24,1115.83 1680.32,1122.9 1684.75,1115.04 C1690.03,1105.66 1695.55,1095.1 1702.75,1087.04 C1705.45,1084.04 1710.23,1084.54 1713.41,1081.56 C1713.85,1081.15 1714.8,1080.41 1715,1079.83 C1716.22667,1078.60333 1715.18333,1078.66333 1711.87,1080.01 L1713.33,1081.01 C1715.33,1082.95 1718.33,1084.34 1720.65,1085.88 C1728.17,1090.88 1735.19,1078.77 1727.72,1073.79 L1727.71,1073.75 Z" id="Shape" fill="#231F20" fill-rule="nonzero"></path>
            <path d="M1718.98,1066.89 C1709.48,1058.89 1697.46,1066.26 1692.24,1075.54 C1687.82,1083.4 1699.91,1090.47 1704.33,1082.61 C1705.20165,1080.90499 1706.45396,1079.42343 1707.99,1078.28 C1708.48215,1077.9711 1709.00087,1077.70672 1709.54,1077.49 C1710.82,1076.97 1710.25,1077.78 1709.08,1076.8 C1711.97,1079.23 1716.14,1079.64 1718.98,1076.8 C1721.48,1074.3 1721.89,1069.34 1718.98,1066.9 L1718.98,1066.89 Z" id="Shape" fill="#231F20" fill-rule="nonzero"></path>
            <path d="M879.9,701.88 L829.25,665.58 C825.73,663.05 822.33,660.73 817.9,659.97 C812.74,659.09 807.11,659.67 801.9,659.67 C796.5,659.67 791.1,659.58 785.7,659.67 C780.58,659.76 776.53,661.56 772.18,663.9 L740.9,680.71 C739.83,681.28 742.16,683.85 742.55,684.19 C749.34,690.13 756,696.27 762.94,702.03 C766.94,705.34 771.35,706.75 776.22,708.03 L794.6,712.93 C803.01,715.17 810.88,718.04 819.67,716.51 L852.51,710.8 L881.7,705.72 C883.07,705.48 880.54,701.35 879.15,701.59 L821.15,711.67 C818.45,712.14 815.7,712.78 812.96,713.01 C807.87,713.44 802.79,711.61 797.96,710.31 C788.69,707.84 779.3,705.64 770.11,702.88 C763.82,700.99 759.17,695.88 754.35,691.69 L742.3,681.19 L743.95,684.67 L771.1,670.05 C775.34,667.77 779.7,664.89 784.5,664.05 C789.3,663.21 794.65,663.77 799.5,663.77 C805.07,663.77 810.64,663.69 816.21,663.77 C820.951042,663.877659 825.532371,665.504084 829.28,668.41 L856.28,687.76 L881.02,705.52 C882.97,706.95 880.9,702.58 879.9,701.88 Z" id="Shape" fill="#231F20" fill-rule="nonzero"></path>
            <path d="M1066.77,727.58 L1092.25,714.37 C1095.54,712.67 1098.79,710.84 1102.13,709.25 C1107.54,706.68 1112.97,706.96 1118.76,706.96 C1124.2,706.96 1129.65,706.96 1135.09,706.96 C1139.29961,707.037832 1143.39849,708.321984 1146.9,710.66 C1155.68,715.99 1164.81,720.97 1173.33,726.66 C1180.8,731.66 1187.19,739.14 1193.8,745.25 L1195.18,742.38 L1116.32,742.38 C1112.68,742.38 1109.04,742.45 1105.4,742.38 C1101.15,742.3 1097.99,740.73 1094.4,738.92 L1066,724.72 C1063.56,723.5 1060.91,726.09 1063.87,727.57 L1089.59,740.43 C1093.39,742.33 1097.22,744.63 1101.43,745.48 C1104.66,746.14 1108.1,745.9 1111.38,745.9 L1195.65,745.9 C1197.57,745.9 1198.58,744.46 1197.03,743.03 C1190.51,737.03 1184.25,729.85 1177.03,724.72 C1168.55,718.72 1159.03,713.8 1150.15,708.4 C1145.76,705.74 1141.59,703.56 1136.27,703.4 C1131.41,703.23 1126.52,703.4 1121.66,703.4 C1116.8,703.4 1111.85,702.97 1107.11,703.63 C1102.37,704.29 1098.21,706.57 1093.99,708.76 L1063.1,724.76 C1060.68,726.02 1064.9,728.58 1066.77,727.58 Z" id="Shape" fill="#231F20" fill-rule="nonzero"></path>
            <path d="M1027.03,746.01 L1092.98,785.01 C1097.34,787.59 1101.62,789.76 1106.76,790.48 C1111.26,791.11 1115.76,791.48 1120.31,792.04 L1165.97,797.31 C1173.87,798.22 1181.13,798.01 1188.36,793.97 C1194.26,790.68 1200.02,787.11 1205.85,783.68 C1207.65,782.62 1204.85,778.51 1202.94,779.61 C1197.58,782.76 1192.24,785.93 1186.87,789.06 C1180.84536,792.611073 1173.79701,794.020743 1166.87,793.06 L1124.33,788.15 C1114.57,787.02 1103.59,787.15 1094.96,782.03 L1059.77,761.2 L1027.77,742.28 C1024.95,740.61 1025.08,744.76 1027.03,745.92 L1027.03,746.01 Z" id="Shape" fill="#231F20" fill-rule="nonzero"></path>
            <path d="M878.61,732.49 C854.61,735.63 830.61,738.87 806.61,741.92 C796.91,743.15 786.28,739.92 776.76,738.37 L753.01,734.45 C749.25,733.83 744.89,733.7 741.28,732.45 C735.19,730.28 729.28,726.27 723.54,723.31 L706.66,714.58 C703.66,713.03 704.74,715.86 706.66,716.85 C717.85,722.61 728.99,728.47 740.23,734.14 C743.075569,735.460613 746.113865,736.318088 749.23,736.68 L770.49,740.19 L793.85,744.05 C798.71,744.85 803.5,745.95 808.45,745.43 C819.78,744.24 831.07,742.43 842.36,740.99 L882.21,735.77 C883.21,735.64 880.11,732.32 878.61,732.52 L878.61,732.49 Z" id="Shape" fill="#231F20" fill-rule="nonzero"></path>
            <path d="M849.07,842.53 C837.77,847.86 824.42,858.13 823.95,871.68 C823.55,883.22 823.95,894.83 823.95,906.38 C823.95,911.52 823.3,916.82 826.95,921.03 C830.95,925.66 837.61,925.76 843.22,926.66 C849.73,927.66 856.29,928.61 862.78,929.79 C867.49,930.65 870.99,933.2 874.9,935.79 C886.25,943.21 899.07,954.65 913.25,955 C918.55,955.13 923.41,953.75 928.46,952.46 L948.46,947.32 L967.09,942.54 C967.29,942.49 970.75,941.83 970.78,941.59 C970.64,942.7 967.36,940.73 969.62,941.71 C970.743895,942.106713 971.888999,942.440562 973.05,942.71 C986.25,946.71 1001.32,953.71 1015.29,950.33 C1032.82,946.12 1041.12,929.33 1049.29,914.92 C1052.49,909.29 1051.63,902.53 1051.63,896.29 L1051.63,877.68 C1051.63,872.77 1042.57,868.96 1042.57,874.78 C1042.57,884.47 1043.23,894.4 1042.57,904.07 C1042.18,909.75 1037.57,915.23 1034.69,919.96 C1031.49,925.23 1028.61,930.89 1023.96,935.06 C1016.50885,941.641426 1006.20573,943.947361 996.66,941.17 C991.33,939.68 986.06,937.96 980.76,936.35 C976.76,935.15 971.43,932.35 967.17,932.75 C963.93,933.03 960.43,934.48 957.29,935.28 L921.29,944.52 C914.75,946.2 908.29,946.81 901.92,943.74 C897.44,941.57 893.3,938.32 889.15,935.6 C879.93,929.6 871.36,922.48 860.25,920.71 L841.25,917.71 C839.25,917.39 836.03,917.47 834.16,916.58 C832.92,915.99 833.25,916.28 832.96,914.9 C832.5,912.72 832.96,909.99 832.96,907.75 L832.96,876.88 C832.96,864.2 844.02,855.66 854.7,850.62 C859.7,848.28 853.58,840.4 849.02,842.55 L849.07,842.53 Z" id="Shape" fill="#231F20" fill-rule="nonzero"></path>
            <path d="M992.48,693.81 L992.48,761.58 C992.48,767.17 990.96,771.58 988.33,776.46 C984.18,784.2 980,791.93 975.89,799.69 C969.67,811.42 969.05,824.59 974.89,836.69 C978.2,843.57 981.8,850.32 985.14,857.19 C990.22,867.63 989.55,878.19 984.99,888.59 L964.41,935.46 C963.41,937.75 972.66,941.51 973.76,939 L992.55,896.2 C996.32,887.61 999.48,879.28 997.82,869.6 C996.26,860.53 990.57,851.83 986.51,843.71 C980.42,831.53 977.68,818.91 983.88,805.96 C987.24,798.96 991.22,792.18 994.88,785.33 C998.03,779.45 1001.8,774 1001.88,767.13 C1001.95,760.76 1001.88,754.38 1001.88,748.01 L1001.88,696.31 C1001.88,693.8 992.52,690.87 992.52,693.81 L992.48,693.81 Z" id="Shape" fill="#231F20" fill-rule="nonzero"></path>
            <path d="M766.78,986.87 L807.15,996.27 C816.76,998.51 826.55,999.54 836.33,1000.87 C850.94,1002.87 865.68,1004.42 880.22,1006.87 C885.41,1007.73 890.36,1010.27 895.22,1012.19 C901.35,1014.61 907.44,1017.41 913.7,1019.45 C920.88,1021.8 928.7,1018.86 935.77,1017.23 C942.84,1015.6 950.18,1013.63 957.44,1012.23 C960.36,1011.67 963.38,1011.9 966.34,1011.9 L1036.78,1011.9 C1047.12,1011.9 1057.34,1010.18 1067.59,1008.9 C1075,1008 1082.41,1007.04 1089.82,1006.19 C1093.43,1005.77 1096.91,1005.82 1100.16,1007.83 C1100.81897,1008.22961 1101.43549,1008.69535 1102,1009.22 C1103.64,1010.76 1102.42,1009.59 1102.29,1009.16 C1102.12,1008.55 1102.72,1012.03 1102.53,1012.45 C1102.34,1012.87 1101.53,1013.55 1101.1,1013.94 C1091.18,1024.34 1081.38,1034.88 1071.32,1045.14 C1063.62,1052.99 1053.62,1059.14 1044.94,1065.84 L1009,1093.46 C1000.56,1099.94 989.36,1102.88 979.54,1106.66 C965.64,1112.02 951.77,1117.48 937.83,1122.73 C932.59,1124.73 927.53,1124.85 922.06,1124.85 L897,1124.85 C891.28,1124.85 885.37,1125.28 879.66,1124.73 C873.5,1124.14 867.18,1121.22 861.37,1119.3 L837.1,1111.3 C831.41,1109.42 826.33,1107.44 822.39,1102.58 C813.34,1091.41 803.8,1080.38 795.39,1068.75 C794.01,1066.84 793.48,1064.69 792.69,1062.38 L786.03,1042.71 L769.68,994.43 L766.61,985.37 C765.93,983.37 764.86,980.6 763.31,979.12 C762.31,978.12 761.68,977.63 762.31,979.62 L789.09,1058.58 C793.16,1070.58 800.83,1079.35 808.62,1089.1 L823.9,1108.21 C827.9,1113.16 832.02,1116.88 838.17,1118.95 C851.66,1123.48 865.17,1128.24 878.76,1132.38 C884.61,1134.16 890.76,1133.69 896.76,1133.69 L923.83,1133.69 C929.98,1133.69 935.91,1134.02 941.83,1131.85 C946.88,1129.99 951.88,1127.98 956.91,1126.04 L1002.62,1108.43 C1012.49,1104.63 1020.54,1097.07 1028.85,1090.68 L1069.01,1059.81 C1078.01,1052.9 1085.38,1044.19 1093.2,1036 L1102.2,1026.54 C1103.61,1025.06 1106.06,1023.3 1107.04,1021.47 C1108.54,1018.65 1106.39,1013.73 1105.19,1011.06 C1102.91,1005.97 1099.66,1000.52 1094.32,998.22 C1088.82,995.86 1081.86,997.73 1076.15,998.43 L1049.15,1001.73 C1039.85192,1002.73278 1030.50079,1003.16026 1021.15,1003.01 L967.69,1003.01 C963.48,1003.01 959.14,1002.7 954.94,1003.01 C949.38,1003.42 943.65,1005.45 938.24,1006.7 C931.85,1008.17 925.46,1009.9 919.02,1011.13 C910.62,1012.74 901.91,1007.71 894.28,1004.69 C888.55,1002.42 882.47,999.12 876.34,998.08 C871.44,997.26 866.46,996.74 861.54,996.08 L812.9,989.47 C801.13,987.87 789.51,984.39 777.95,981.7 L762.13,978.02 C761.83,977.95 763.61,982.46 763.79,982.8 C764.36,983.92 765.39,986.58 766.78,986.87 Z" id="Shape" fill="#231F20" fill-rule="nonzero"></path>
            <path d="M780.56,999.97 C800.77,1005.82 820.93,1011.97 841.22,1017.51 C864.56,1023.91 887.89,1031.12 911.48,1036.51 C916.29,1037.61 920.85,1036.73 925.62,1036.07 L946.98,1033.07 C958.98,1031.39 971.05,1029.5 983.12,1028.07 C981.91,1028.22 983.87,1028.01 984.38,1027.96 L989.76,1027.42 L1008.86,1025.51 L1057.01,1020.69 C1065.01,1019.89 1073.01,1018.76 1081.09,1018.76 L1093.2,1018.76 C1094.65,1018.76 1097.48,1018.37 1096.46,1020.38 C1096,1021.28 1093.55,1022.38 1092.75,1022.92 L1086.3,1027.34 L1047.06,1054.22 L1031.06,1065.15 C1029.68,1066.09 1028.31,1067.05 1026.93,1067.98 C1025.55,1068.91 1027.07,1067.98 1026.07,1068.49 C1014.16,1074.03 1001.86,1078.86 989.78,1084.03 L971.63,1091.8 C970.53,1092.27 969.43,1092.8 968.32,1093.22 C969.03,1092.92 969.99,1092.98 968.79,1093.03 C967.87,1093.03 966.92,1093.26 966,1093.37 L923.09,1098.58 C918.83,1099.1 914.9,1099.46 910.63,1098.46 C905.06,1097.15 899.51,1095.74 893.95,1094.39 L870.16,1088.58 C865.6,1087.47 860.75,1086.69 856.3,1085.2 C855.86,1085.05 857.53,1086.03 856.62,1085.28 L854.78,1083.75 L848.08,1078.16 L829.48,1062.66 L822.17,1056.57 C821.7,1056.18 819.24,1054.09 819.79,1054.74 C817.38,1051.94 815.65,1048.08 813.7,1044.95 L789.22,1005.58 L783.9,997.02 C782.61,994.94 778.09,997.07 779.35,999.1 L797.83,1028.84 L810.14,1048.64 C811.86,1051.41 813.39,1054.84 815.56,1057.31 C818.56,1060.75 823.02,1063.52 826.56,1066.45 L845.72,1082.45 C848.29,1084.59 851.05,1087.8 854.18,1089.08 C858.56,1090.87 863.89,1091.45 868.47,1092.57 C882.04,1095.88 895.58,1099.4 909.2,1102.51 C913.86,1103.57 918.12,1103.06 922.74,1102.51 L945.49,1099.73 C954.56,1098.62 964.72,1098.8 973.2,1095.17 L1014.66,1077.42 C1021.56,1074.42 1027.87,1071.91 1034.02,1067.69 L1071.55,1041.99 C1080.73,1035.7 1090.9,1029.99 1099.49,1022.86 C1101.35,1021.32 1102.49,1019.03 1101.08,1016.79 C1099.67,1014.55 1096.88,1014.91 1094.58,1014.91 C1088.82,1014.91 1082.98,1014.61 1077.23,1014.91 C1066.69,1015.48 1056.1,1017.02 1045.6,1018.07 L997.19,1022.91 C975.31,1025.1 953.57,1028.46 931.79,1031.49 C927.68,1032.06 923.52,1032.91 919.38,1033.22 C914.91,1033.56 910.44,1031.89 906.17,1030.73 L860.37,1018.33 C838.06,1012.33 815.89,1005.79 793.68,999.33 L782.74,996.16 C780.43,995.5 777.57,999.11 780.56,999.97 Z" id="Shape" fill="#231F20" fill-rule="nonzero"></path>
            <path d="M1080.23,643.33 L1154.31,651.04 C1175.6,653.26 1197.21,652.35 1218.6,652.52 C1229.14,652.6 1239.68,652.52 1250.22,652.52 C1251.96,652.52 1248.8,650.17 1248.48,650 L1217.9,633.1 C1207.68,627.44 1197.59,621.01 1186.98,616.1 C1176.37,611.19 1164.28,613.47 1152.98,614.28 L1104.15,617.77 L1070.48,620.17 C1070.29358,620.127429 1070.09869,620.188572 1069.97,620.33 C1068.23,624.84 1065.83,629.33 1067.73,634.21 C1069.73,639.36 1074.94,642.48 1080.17,643.36 C1081.47,643.58 1078.17,640.55 1076.97,640.36 C1074.1,639.88 1071.7,636.62 1071.33,633.87 C1071.16465,632.178772 1071.37289,630.471869 1071.94,628.87 C1072.42426,627.206322 1073.04987,625.587092 1073.81,624.03 C1074.34,623.03 1073.45,623.29 1075.45,623.12 C1080.34,622.72 1085.23,622.42 1090.12,622.12 L1140.02,618.56 C1151.27,617.76 1162.52,616.82 1173.77,616.15 C1186.89,615.36 1199.34,624.86 1210.37,630.97 L1248.7,652.2 L1246.96,649.68 C1223.62667,649.68 1200.29333,649.566667 1176.96,649.34 C1155.05,649.16 1133.48,646.34 1111.69,644.07 L1076.97,640.46 C1075.65,640.18 1079.03,643.21 1080.23,643.33 Z" id="Shape" fill="#231F20" fill-rule="nonzero"></path>
            <path d="M860,596.42 L832.18,578.76 C821.72,572.12 812.26,566.01 799.1,567.57 C787.95,568.89 776.84,570.57 765.71,572.1 C755.52,573.48 743.92,573.7 734.71,578.75 C724.5,584.37 714.43,590.27 704.29,596.02 C703.4,596.53 707.65,597.67 708.29,597.53 L768.69,584.53 C776.56,582.83 783.34,584.1 791.05,585.53 L830.05,592.53 L858,597.53 C860.85,598.04 861.19,596.47 858.29,595.95 L793.49,584.33 C784.96,582.8 776.43,580.56 767.76,582.33 C757.52,584.41 747.32,586.74 737.11,588.95 L705.01,595.88 L709.01,597.39 L736.3,581.9 C740.76,579.37 745.14,577.27 750.3,576.48 C754.13,575.89 757.98,575.48 761.82,574.92 L798.48,569.92 C805.54,568.92 811.9,569.03 818.43,572.92 C821.34,574.66 824.17,576.57 827.04,578.39 L856.32,596.98 C857.24,597.49 862.05,597.72 860,596.42 Z" id="Shape" fill="#231F20" fill-rule="nonzero"></path>
            <path d="M913.05,693.89 L834.99,650.45 L818.71,641.39 C813.93,638.73 809.49,636.59 803.71,638.21 C791.28,641.72 779.06,646.42 766.81,650.5 L723.31,664.99 C723.88,664.8 726.2,668.24 727.42,667.84 C753.7,659.1 779.9,650.11 806.19,641.58 C810.70183,639.973939 815.692231,640.438587 819.83,642.85 L834.18,650.85 L882.29,677.62 L915.72,696.22 C917.41,697.16 913.66,694.22 913.04,693.88 L913.05,693.89 Z" id="Shape" fill="#231F20" fill-rule="nonzero"></path>
            <path d="M911.96,725.3 C911.96,736.98 912.9,748.64 909.38,759.89 L896.01,802.58 L891.68,816.42 C891.22,817.88 896.03,817.3 896.5,815.81 L907.29,781.38 C910.85,770.03 916.7,757.38 916.82,745.28 C916.89,738.22 916.82,731.15 916.82,724.09 C916.82,722.82 911.97,723.6 911.97,725.31 L911.96,725.3 Z" id="Shape" fill="#231F20" fill-rule="nonzero"></path>
            <path d="M782.41,880.92 L730.07,946.92 C727.046572,950.732122 725.400799,955.454469 725.4,960.32 L725.4,988.58 C725.398635,990.756227 725.708437,992.92147 726.32,995.01 L742.42,1049.87" id="Shape" stroke="#231F20" stroke-width="5"></path>
            <path d="M1064.9,887.17 C1076.9,888.41 1111.09,913.38 1124.58,923.54 C1128.20627,926.268992 1131.13313,929.81961 1133.12,933.9 L1156.75,982.45" id="Shape" stroke="#231F20" stroke-width="5"></path>
            <path d="M1328.28,887.17 L1364.2,796.68 L1370.45,754.41 L1372.82,737.79 L1379.82,688.69 L1412.62,515.45 L1420.43,446.73 L1395.43,404.56 L1359.51,382.69 L1407.9,324.9 L1374.32,212.45 C1374.32,212.45 1362.32,157.89 1259.52,101.56 C1156.72,45.23 1106.46,48.46 1106.46,48.46 C1106.46,48.46 965.9,63.32 969.05,25.03 C972.2,-13.26 972.25,4.73 894.05,4.73 C815.85,4.73 793.5,23.47 793.5,23.47 L725.4,23.47 C725.4,23.47 694.55,17.16 664.49,85.94 C634.43,154.72 680.11,243.69 680.11,243.69 C680.11,243.69 629.22,245.01 616.11,273.37 C603,301.73 616.11,334.28 616.11,334.28 L639.54,420.18 L637.9,606.04 L650.39,637.77 L669.17,557.58 L704.3,378.99 C705.849354,371.124917 709.166247,363.714909 714,357.32 L757.31,300 C758.919609,297.868225 761.037328,296.173363 763.47,295.07 L804.12,276.63 C808.945686,274.442718 814.131313,273.158174 819.42,272.84 L939.83,265.58 C940.569057,265.527177 941.310943,265.527177 942.05,265.58 L1123.39,280.58 C1127.87728,280.951067 1132.29387,281.926552 1136.52,283.48 L1263.72,330.2 C1268.10632,331.81126 1271.83666,334.827877 1274.33,338.78 L1312.75,399.72 C1314.68957,402.798829 1315.31954,406.524653 1314.5,410.07 L1288.32,523.58 C1287.89028,525.449244 1287.85961,527.388101 1288.23,529.27 L1304.85,613.88 L1322.79,659.67 C1323.31993,661.036552 1323.65651,662.470387 1323.79,663.93 L1331.39,744.22 C1331.39,744.22 1354.82,741.64 1348.57,796.72 C1342.32,851.8 1328.28,887.17 1328.28,887.17 Z" id="Shape" stroke="#231F20" stroke-width="9"></path>
            <path d="M650.43,637.77 L639.5,652.89 L625.68,721.05 C624.484106,726.944151 624.163996,732.982445 624.73,738.97 L627.98,773.24 C628.361454,777.345859 628.334656,781.479432 627.9,785.58 L616.04,899.68 L616.04,982.07 C616.040293,992.55577 618.825204,1002.85338 624.11,1011.91 L692.58,1129.28 L777.36,1254.58 C780.683698,1259.49299 785.012431,1263.64448 790.06,1266.76 L833.45,1293.54 C841.432355,1298.46876 850.628599,1301.07944 860.01,1301.08 L961.35,1301.08 C966.392704,1301.07906 971.342306,1299.72163 975.68,1297.15 L1011.22,1276.09 L1002.9,1255.66 C999.317723,1246.86691 999.962619,1236.91709 1004.65,1228.66 L1021.6,1198.9 C1025.20728,1192.56917 1031.93358,1188.66013 1039.22,1188.66 L1041.28,1188.66 C1049.84686,1188.65964 1057.85886,1184.42151 1062.68,1177.34 L1104.95,1115.25 L1164.3,998.11 L1215.84,937.2 L1248.64,887.2 L1309.55,899.69 L1328.29,887.2" id="Shape" stroke="#231F20" stroke-width="9"></path>
            <path d="M1164.33,662.58 C1166.6,662.58 1162.1,660.79 1161.12,660.79 C1158.85,660.79 1163.35,662.58 1164.33,662.58 Z" id="Shape" fill="#231F20" fill-rule="nonzero"></path>
            <path d="M1020.73,1054.31 L1029.45,1045.22 C1030.56,1044.06 1028.98,1042.96 1027.97,1042.73 C1021.97,1041.35 1014.63,1038.35 1008.89,1042.12 C1006.89,1043.41 1005.81,1045.53 1003.58,1046.4 C1000.19,1047.73 998.12,1045.69 995.18,1044.54 C990.083221,1042.59268 984.416948,1042.78011 979.46,1045.06 C973.2,1047.96 968.55,1050.79 961.27,1048.63 C958.27,1047.75 955.39,1046.63 952.46,1045.63 C946.39544,1043.42286 939.80168,1043.11934 933.56,1044.76 C930.27,1045.54 926.98,1046.47 923.66,1047.1 C920.06,1047.79 917.5,1047 914.16,1046.01 C908.16,1044.24 901.68,1041.34 895.42,1040.94 C890.28,1040.61 885.42,1043.83 880.37,1042.94 C876.37,1042.25 872.63,1039.01 869.37,1036.82 C862.94,1032.57 856.37,1029.73 849.46,1035.09 C845.75,1037.96 842.28,1039.83 838.54,1035.47 C837.78,1034.59 837.13,1033.59 836.43,1032.65 C834.51,1030.08 832.74,1026.95 830.43,1024.65 C826.32,1020.56 821.35,1025.8 816.49,1023.94 C813.23,1022.69 810.26,1019.85 807.49,1017.84 C806.18,1016.9 802.8,1017.28 803.3,1019.46 L807.16,1036.2 C807.413975,1037.99347 807.87367,1039.75172 808.53,1041.44 C809.6,1043.58 811.8,1044.81 813.69,1046.13 C818.08,1049.2 822.61,1052.13 826.88,1055.36 C830.88,1058.36 834.49,1062.09 838.6,1065.01 C842.71,1067.93 847.77,1069.78 852.24,1072.01 C856.71,1074.24 861.8,1077.82 866.83,1078.53 C872.62,1079.36 878.53,1076.65 883.83,1079.86 C886.34,1081.37 888.69,1083.07 891.68,1083.4 C894.172191,1083.51783 896.669779,1083.44093 899.15,1083.17 L909.8,1082.64 C911.8,1082.54 913.1,1082.64 914.44,1081.06 C915.78,1079.48 918.8,1075.14 918.95,1073.18 L917.39,1073.37 L917.76,1074.26 C917.996579,1075.0652 918.332497,1075.83781 918.76,1076.56 L920.5,1080.74 C920.89,1081.68 922.01,1081.92 922.9,1082 L944.69,1083.93 C951.22,1084.51 958.55,1086.72 963.85,1081.93 C965.17,1080.74 966.85,1078.28 968.48,1077.58 C971.35,1076.34 972.42,1079.46 974.09,1080.97 C977.09,1083.71 980.64,1083.31 984.09,1081.7 C990.09,1078.89 997.42,1076.32 1002.34,1071.79 C1008.58,1066.05 1014.65,1060.11 1020.8,1054.27 C1022.73,1052.44 1018.01,1051.1 1016.49,1052.54 L1000.49,1067.72 C995.49,1072.43 989.66,1074.8 983.49,1077.82 C982.59,1078.26 981.15,1079.36 980.14,1079.47 C977.81,1079.71 977.03,1077.47 975.72,1076.12 C972.668186,1072.88405 967.580928,1072.70571 964.31,1075.72 C961.91,1077.72 959.68,1081.34 956.37,1081.59 C953.37,1081.81 949.97,1081.02 946.99,1080.76 L922.9,1078.65 L925.3,1079.91 C923.8,1076.32 922.68,1069.67 917.6,1070.14 C913.41,1070.53 911.27,1077.32 909.49,1080.42 L911.91,1079.19 L898.73,1079.85 C896.950589,1080.05018 895.16052,1080.14035 893.37,1080.12 C890.62,1079.91 888.66,1078.24 886.37,1076.92 C881.79,1074.28 877.44,1074.92 872.37,1075.16 C868.04,1075.38 865.1,1074.28 861.37,1072.4 C853.55,1068.52 845.37,1065.29 838.59,1059.73 C831.81,1054.17 824.59,1048.95 817.27,1043.82 C815.38,1042.5 813.74,1041.64 812.92,1039.33 C812.38491,1037.48573 811.954226,1035.61276 811.63,1033.72 L808.16,1018.65 L803.9,1020.28 C810,1024.65 815.82,1029.64 823.9,1027.43 C824.71,1027.21 826.53,1026.03 827.29,1026.08 C825.15,1025.95 826.24,1026.35 826.49,1026.92 C827.280427,1028.23303 828.201794,1029.46264 829.24,1030.59 C831.11,1033.09 832.83,1035.94 835.03,1038.17 C837.856794,1040.94 841.835274,1042.19558 845.74,1041.55 C851.95,1040.55 854.98,1032.96 861.83,1036.55 C868.14,1039.9 873.05,1045.61 880.53,1046.36 C886.04,1046.91 891.02,1043.49 896.45,1044.44 C899.43234,1045.1153 902.373775,1045.96 905.26,1046.97 C911.5,1048.83 918.02,1051.72 924.61,1050.41 C931.61,1049.02 939.44,1045.36 946.53,1047.32 C953.19,1049.16 959.53,1052.82 966.62,1052.9 C973.34,1052.97 977.49,1049.52 983.38,1047.36 C990.75,1044.67 995.38,1050.83 1002.38,1050.29 C1008.38,1049.82 1011.27,1043.29 1017.23,1043.79 C1020.34,1044.08 1023.58,1045.24 1026.64,1045.94 L1025.16,1043.45 L1016.44,1052.54 C1014.55,1054.52 1019.27,1055.83 1020.73,1054.31 Z" id="Shape" fill="#231F20" fill-rule="nonzero"></path>
            <path d="M1104.39,707.06 C1106.48,707.06 1109.39,703.31 1106.39,703.31 C1104.3,703.31 1101.39,707.06 1104.39,707.06 Z" id="Shape" fill="#231F20" fill-rule="nonzero"></path>
            <path d="M1102.9,705.32 L1098.4,744.32 C1098.28,745.32 1100.4,745.46 1100.96,745.46 L1153.46,745.46 C1154.32,745.46 1155.77,745.08 1155.89,744.06 L1159.25,714.45 C1159.43,712.84 1154.47,712.86 1154.25,714.71 L1150.9,744.32 L1153.33,742.92 L1100.83,742.92 L1103.39,744.06 L1107.89,705.06 C1108.08,703.46 1103.11,703.47 1102.89,705.32 L1102.9,705.32 Z" id="Shape" fill="#231F20" fill-rule="nonzero"></path>
            <path d="M845.01,678.28 L838.64,710.96" id="Shape" stroke="#231F20" stroke-width="5"></path>
            <path d="M779.09,662.44 L780.09,708.7 C780.09,710.88 784.78,709.15 784.74,707.21 L783.74,660.95 C783.74,658.77 779.05,660.5 779.09,662.44 Z" id="Shape" fill="#231F20" fill-rule="nonzero"></path>
            <path d="M813.77,700.19 C806.336247,700.19 800.31,694.163753 800.31,686.73 C800.31,679.296247 806.336247,673.27 813.77,673.27 C821.203753,673.27 827.23,679.296247 827.23,686.73 C827.23,694.163753 821.203753,700.19 813.77,700.19 Z M815.85,685.86 C816.42185,684.766579 816.050636,683.417106 815,682.77 C813.658736,682.132012 812.184538,681.823459 810.7,681.87 C808.53,681.87 805.81,682.87 806.12,685.45 C806.43,688.03 809.48,688.93 811.69,688.45 C812.13749,688.376201 814.79,688.34 815.85,685.86 Z" id="Combined-Shape" fill="#231F20" fill-rule="nonzero"></path>
            <path d="M824.9,687.38 C824.56,694.06 819.21,699.58 812.16,698.07 C806.611298,696.740843 802.701224,691.77567 802.71,686.07 C802.71,679.6 808.21,674.27 814.78,675.28 C820.87,676.21 824.6,681.52 824.9,687.37 C825.02,689.8 829.74,688.24 829.63,686.07 C829.497517,681.860728 827.618934,677.896543 824.444986,675.128587 C821.271038,672.360632 817.088173,671.038711 812.9,671.48 C804.9,672.25 797.9,679.13 797.95,687.38 C798.01,696.25 806.01,702.8 814.65,701.98 C822.908742,701.16523 829.294934,694.373226 829.6,686.08 C829.71,683.72 824.97,685.22 824.9,687.38 Z" id="Shape" fill="#231F20" fill-rule="nonzero"></path>
            <path d="M1128.83,738.15 C1121.39625,738.15 1115.37,732.123753 1115.37,724.69 C1115.37,717.256247 1121.39625,711.23 1128.83,711.23 C1136.26375,711.23 1142.29,717.256247 1142.29,724.69 C1142.29,732.123753 1136.26375,738.15 1128.83,738.15 Z M1125,725.160538 C1126.30754,724.871049 1128.67561,723.959487 1129.53,723.24 C1131.05,721.96 1132.02,719.77 1130.05,718.37 C1128.08,716.97 1125.05,718.37 1123.39,719.95 C1121.96,721.34 1121.23,723.6 1122.59,725.3 C1122.9018,725.689744 1123.98137,725.386062 1125,725.160538 Z" id="Combined-Shape" fill="#231F20" fill-rule="nonzero"></path>
            <path d="M1140.01,725.15 C1139.24,740.47 1117.68,738.39 1117.71,723.99 C1117.63635,720.697963 1119.10986,717.561699 1121.69089,715.516905 C1124.27193,713.472112 1127.66212,712.755178 1130.85,713.58 C1136.53,714.99 1139.74,720.05 1140.03,725.64 C1140.15,728 1144.67,725.94 1144.56,723.76 C1144.41526,719.551918 1142.50854,715.598424 1139.3056,712.865276 C1136.10266,710.132128 1131.89846,708.871015 1127.72,709.39 C1119.72,710.34 1113.07,717.26 1113.11,725.39 C1113.1889,729.540912 1114.98464,733.473481 1118.06979,736.251634 C1121.15495,739.029786 1125.25355,740.405025 1129.39,740.05 C1137.69185,739.309921 1144.17319,732.555321 1144.57,724.23 C1144.71,721.47 1140.12,723.02 1140.01,725.15 Z" id="Shape" fill="#231F20" fill-rule="nonzero"></path>
            <path d="M1042.32,709.91 L1076.1,695.58 L1098.46,686.09 C1102.81,684.24 1107.61,681.46 1112.38,681.09 C1118.29,680.6 1124.76,682.25 1130.59,682.99 L1154.59,685.99 C1159.26709,686.48047 1163.70222,688.314263 1167.36,691.27 L1183.01,703.73 L1217.9,731.45 C1220.24,733.31 1223.53,730.45 1220.98,728.45 L1189.9,703.71 L1172.04,689.49 C1167.53,685.9 1163.43,682.83 1157.43,681.98 C1143.71,680.03 1129.91,678.31 1116.14,676.77 C1110.78,676.17 1106.35,677.65 1101.57,679.67 L1081.41,688.23 L1039.52,706.01 C1036.74,707.19 1039.89,710.96 1042.35,709.91 L1042.32,709.91 Z" id="Shape" fill="#231F20" fill-rule="nonzero"></path>
            <path d="M1359.19,891.67 L1458.89,870.25 L1524.81,856.09 L1543.49,852.09 C1546.69,851.4 1548.49,851.31 1550.64,848.8 C1557.85,840.54 1563.75,830.64 1570.16,821.8 L1585.95,799.92 L1581.95,801.32 L1676.38,819.84 C1710.15,826.46 1743.73,837.84 1775.67,850.32 C1804.27,861.53 1833.94,874.61 1857.36,894.9 C1877.81604,912.621298 1892.78917,935.812995 1900.52,961.75 C1902.364,967.931715 1903.72477,974.2474 1904.59,980.64 C1904.66,981.17 1904.68,981.71 1904.77,982.24 C1904.41,980.05 1904.89,983.12 1905.2,983.85 C1905.92,985.56 1906.84,987.2 1907.63,988.85 C1912.3,998.67 1916.63,1008.66 1920.5,1018.85 C1924.37,1029.04 1929.41,1041.09 1928.91,1052.15 C1928.78,1054.93 1929.21,1055.15 1926.3,1055.15 C1923,1055.08 1919.42,1053.51 1916.42,1052.27 C1906.5,1048.15 1897.15,1042.57 1888.03,1036.95 C1874.5,1028.61 1861.31,1019.65 1848.51,1010.23 C1843.9,1006.84 1839.91,1011.73 1842.88,1016.18 L1858.99,1040.34 C1861.46,1044.04 1864.12,1047.68 1866.42,1051.49 C1867.35,1053.02 1865.96,1050.49 1866.3,1051.3 C1866.55,1051.86 1866.79,1052.43 1866.99,1053 C1872.99,1069.6 1880.35,1085.83 1886.99,1102.17 L1916.05,1173.58 C1920.63,1184.85 1924.46,1196.98 1930.29,1207.66 C1938.89,1223.41 1944.01,1241.72 1943.67,1260.2 C1943.46,1271.62 1941.05,1289.86 1933.12,1297.2 C1931.94067,1298.21628 1931.42749,1299.80599 1931.79,1301.32 L1941.29,1341.17 C1943.29,1349.61 1946.67,1357.34 1948.74,1365.71 C1961.88,1418.71 1930.49,1467.49 1897.16,1505.58 C1886.82353,1517.55524 1875.78758,1528.90841 1864.11,1539.58 C1862.11,1541.42 1862.57,1543.92 1863.86,1546.05 C1885.17,1581.16 1907.05,1620.28 1924.96,1658.59 C1937.19,1684.74 1946.61,1710.35 1947.66,1739.59 C1947.99,1748.86 1947.82,1758.66 1944.66,1767.51 C1943.92,1769.59 1944.56,1767.18 1943.75,1769.76 C1942.87,1772.57 1942.26,1775.49 1941.51,1778.33 L1925.9,1838.29 L1933.44,1837.98 L1860.44,1730.98 C1853.83,1721.28 1847.96,1708.66 1838.17,1701.73 C1825.8,1692.98 1811.7,1686.73 1797.23,1682.4 C1778.52,1676.79 1759.9,1673.98 1741.14,1680.55 C1714.14,1690.02 1689.78,1710.73 1671.3,1732.28 C1669.7,1734.15 1671.04,1737.64 1672.74,1738.92 L1744.74,1792.92 L1746.13,1784.77 L1591.66,1771.08 L1514.99,1764.29 C1502.34,1763.17 1489.56,1763.77 1476.88,1763.77 L1336.88,1763.77 C1334.32,1763.77 1330.52,1763.06 1328.04,1763.77 C1326.52,1764.21 1327.67,1763.44 1329.28,1764.21 C1327.44,1763.33 1325.46,1762.65 1323.54,1761.95 C1314.16,1758.5 1294.19,1751.35 1287.68,1763.12 C1283.81,1770.12 1287.56,1779.89 1291.01,1786.25 C1295.91,1795.25 1303.46,1802.71 1311.76,1808.64 C1320.06,1814.57 1326.55,1817.84 1336.45,1819.16 L1384.69,1825.56 L1392.61,1826.61 C1393.46,1826.72 1397.12,1827.52 1394.76,1826.61 C1396.88551,1827.58967 1398.94045,1828.71571 1400.91,1829.98 L1435.56,1848.98 L1515.49,1892.75 L1520.76,1895.64 L1517.76,1889.3 L1511.76,1916.3 L1515.07,1913.79 C1492.93075,1916.01748 1470.6909,1917.0956 1448.44,1917.02 C1416.55,1917.02 1385.7,1911.81 1354.3,1906.92 L1273.12,1894.29 C1269.25,1893.69 1263.96,1891.78 1260.51,1893.95 C1252.89,1898.76 1247.01,1911.71 1244.33,1919.81 C1234.97,1948.1 1255.62,1975.44 1277.88,1990.89 C1289.27,1998.8 1303.51,2002.89 1316.21,2008.18 C1329.65,2013.78 1343.21,2020.85 1357.14,2025.13 C1369.65,2028.97 1382.91,2031.19 1395.64,2034.19 L1509.86,2061.07 L1506.25,2053.32 L1499.83,2064.87 C1497.25,2069.51 1493.34,2074.58 1491.64,2079.62 C1491.14,2081.11 1493.48,2078.83 1492.13,2079.45 C1490.78,2080.07 1489.6,2080.6 1488.29,2081.1 C1483.5614,2082.89395 1478.67265,2084.23333 1473.69,2085.1 C1453.3,2088.8 1432.13,2086.1 1412.43,2080.21 C1387.56,2072.8 1363.09,2063.68 1338.78,2054.65 C1326.24,2050 1313.78,2045.27 1301.31,2040.31 C1298.94,2039.36 1296.85,2039.84 1295.74,2042.31 L1287.82,2059.85 L1282.62,2071.38 C1281.97,2072.83 1281.32,2074.28 1280.62,2075.73 C1280.41,2076.2 1279.4,2078.41 1280.29,2076.5 C1271.41,2095.65 1272.1,2120.97 1284.8,2138.44 C1289.04695,2144.3292 1294.86041,2148.90929 1301.58,2151.66 C1302.29,2151.95 1312.47,2155.34 1312.84,2154.18 C1312.47,2155.32 1307.63,2151.29 1311.74,2154.4 C1313.85,2155.99 1316.14,2157.4 1318.32,2158.89 L1339.48,2173.31 C1351.3,2181.37 1362.88,2190.21 1375.12,2197.61 C1378.12,2199.39 1380.34,2199.18 1383.68,2199.18 L1455.68,2199.18 C1457.68,2199.18 1459.68,2199.18 1461.68,2199.18 C1464.11,2199.18 1460.83,2198.96 1462.46,2199.18 C1466.73,2199.79 1470.97,2200.84 1475.2,2201.66 L1569.81,2220.06 L1569.03,2210.79 C1540.69,2215.51 1512.38,2220.79 1483.95,2224.97 C1479.81,2225.58 1476.38,2224.81 1472.47,2223.67 L1449.03,2216.83 L1408.15,2204.91 C1400.54,2202.69 1392.76,2200.8 1385.26,2198.26 C1383.82,2197.77 1386.26,2198.79 1383.63,2197.55 C1381.75,2196.64 1379.85,2195.76 1377.96,2194.86 L1366.44,2189.4 C1364.31,2188.4 1361.68,2188.93 1360.87,2191.4 C1357.55,2201.4 1355.26,2210.5 1356.22,2220.92 C1356.54,2224.36667 1356.85,2227.81333 1357.15,2231.26 C1357.72,2237.79 1357.07,2245.74 1359.15,2251.93 C1363.04,2263.41 1373.28,2274.93 1381.48,2283.52 C1396.03367,2298.61923 1413.57743,2310.51602 1432.99,2318.45 C1441.71,2322.07 1451.45,2326.02 1460.93,2327.15 C1471,2328.36 1481.79,2327.27 1491.93,2327.27 L1545.56,2327.27 C1567.82,2327.27 1589.44,2324.19 1611.56,2321.59 C1625.97,2319.9 1640.42,2317.73 1654.89,2316.52 C1661.04,2316.01 1667.36,2317.12 1673.5,2317.63 L1774.65,2326 C1780.39,2326.47 1786.54,2327.76 1792.24,2326.85 C1801.68,2325.35 1811.06,2322.85 1820.41,2320.85 L1925.09,2298.58 C1973.35,2288.3 2020.91,2275.41 2068.68,2263.05 L2076.34,2261.05 C2081.8,2259.64 2077.34,2250.74 2072.25,2252.05 C2029.46,2263.12 1986.82,2275.54 1943.59,2284.75 L1847.46,2305.23 L1802.96,2314.71 L1790.5,2317.36 C1789.57132,2317.60991 1788.62998,2317.8102 1787.68,2317.96 C1786.49,2318.08 1789.32,2317.89 1787.68,2317.8 C1759.51,2316.38 1731.31,2313.14 1703.19,2310.8 C1683.62,2309.18 1663.94,2305.8 1644.4,2308.13 L1595.02,2313.91 C1583.88,2315.21 1572.59,2317.21 1561.39,2317.85 C1534.34,2319.38 1506.78,2317.85 1479.68,2317.85 C1474.18,2317.85 1468.68,2317.79 1463.19,2317.85 C1462.27,2317.85 1461.31,2317.92 1460.39,2317.85 C1462.56,2318.01 1460.39,2317.79 1459.59,2317.6 C1446.68895,2314.58221 1434.21802,2309.95601 1422.47,2303.83 C1401.62,2292.83 1383.47,2276.75 1371.28,2256.45 C1365.4,2246.66 1366.33,2233.87 1365.28,2222.65 C1364.93799,2220.33214 1364.76088,2217.99293 1364.75,2215.65 C1364.91,2208.9 1367.45,2202.1 1369.56,2195.73 L1363.99,2197.73 C1370.27,2200.73 1376.51,2204.21 1382.99,2206.73 C1389.9,2209.42 1397.38,2211 1404.5,2213.07 C1416.87333,2216.66333 1429.24333,2220.27 1441.61,2223.89 L1467.81,2231.53 C1473.28,2233.13 1478.64,2235.22 1484.43,2234.64 C1497.65,2233.3 1510.93,2230.22 1524.03,2228.04 L1571.1,2220.2 C1576.42,2219.31 1574.99,2211.84 1570.32,2210.93 L1489.9,2195.29 C1480.81,2193.52 1471.55,2191 1462.34,2189.93 C1451,2188.61 1438.89,2189.81 1427.5,2189.81 L1381.23,2189.81 C1380.84,2189.81 1377.53,2189.49 1377.34,2189.81 C1378.04,2188.64 1382.34,2192.62 1378.62,2189.75 C1373.9,2186.12 1368.69,2182.98 1363.77,2179.63 L1321.53,2150.83 C1318.75,2148.94 1315.58,2145.99 1312.33,2144.92 C1309.68,2144.05 1307.24,2144.44 1303.95,2143.18 C1281.7,2134.66 1279.68,2101.87 1287.89,2083.18 C1293.25,2070.96 1298.89,2058.85 1304.42,2046.68 L1298.85,2048.68 C1334.29,2062.83 1370.27,2075.92 1406.58,2087.68 C1427.75,2094.51 1450.37,2098.26 1472.58,2095.09 C1479.93,2094.04 1492.04,2092.77 1498.09,2087.61 C1501.39,2084.8 1503.32,2078.91 1505.38,2075.2 L1513.97,2059.74 C1514.70625,2058.24967 1514.72625,2056.50571 1514.02436,2054.9989 C1513.32248,2053.49208 1511.97459,2052.38529 1510.36,2051.99 L1416.95,2029.99 L1365.01,2017.77 C1363.19,2017.34 1361.38,2016.85 1359.55,2016.48 C1358.78,2016.33 1356.03,2015.54 1358.33,2016.32 C1352.73,2014.43 1347.33,2011.72 1341.85,2009.45 C1324.13,2002.07 1306.2,1995.04 1288.64,1987.28 C1272.09,1979.97 1255.79,1961.54 1251.74,1944.03 C1248.52,1930.13 1255.02,1916.15 1263.62,1905.54 C1264.06,1905 1266.76,1902.65 1266.73,1901.97 C1266.73,1900.86 1264.13,1901.72 1264.3,1902.15 C1264.47,1902.58 1270.08,1903.05 1270.61,1903.15 L1343.9,1914.55 C1377.11,1919.72 1410.11,1925.95 1443.81,1926.42 C1468.30429,1926.78177 1492.7989,1925.71998 1517.17,1923.24 C1518.69878,1923.20358 1520.03244,1922.19225 1520.48,1920.73 L1526.48,1893.73 C1527.03395,1891.18082 1525.80239,1888.57813 1523.48,1887.39 L1463.14,1854.39 L1420.77,1831.19 C1413.34,1827.12 1405.77,1821.87 1397.93,1818.68 C1389.93,1815.42 1379.12,1815.68 1370.57,1814.59 C1356.96,1812.79 1343.33,1811.11 1329.74,1809.18 C1327.25,1808.83 1330.53,1809.76 1328.74,1809.01 C1326.2389,1807.88407 1323.82842,1806.56682 1321.53,1805.07 C1313.4,1800.13 1305.53,1793.77 1300.32,1785.7 C1297.09,1780.7 1290.71,1768.31 1300.17,1766.58 C1306.51,1765.42 1313.97,1768.01 1319.89,1770 C1325.66,1771.94 1329.29,1773.28 1335.3,1773.28 L1467.59,1773.28 C1482.59,1773.28 1497.87,1772.42 1512.84,1773.43 C1533.69,1774.83 1554.53,1777.12 1575.34,1778.97 L1744.62,1793.97 L1748.19,1794.29 C1752.71,1794.69 1752.12,1788.04 1749.58,1786.14 L1677.58,1732.14 L1679.02,1738.78 C1694.34,1720.91 1713.92,1704.29 1735.11,1694 C1753.56,1685 1770.47,1684.84 1790.2,1689.81 C1805.31,1693.62 1820.36,1699.61 1833.2,1708.53 C1834.42,1709.38 1835.59,1710.28 1836.78,1711.17 C1837.78,1711.94 1837.95,1712.33 1836.98,1711.17 C1837.86,1712.25 1838.58,1713.52 1839.37,1714.67 L1852.97,1734.67 L1897.05,1799.33 L1926.94,1843.17 C1928.64,1845.66 1933.53,1846.51 1934.48,1842.86 L1948.85,1787.79 C1949.85,1783.96 1951,1780.14 1951.85,1776.28 C1952.02,1775.52 1952.21,1774.75 1952.44,1774.01 C1952.07,1775.2 1952.19,1774.78 1952.71,1773.38 C1955.25862,1766.11304 1956.60955,1758.48026 1956.71,1750.78 C1957.71,1721.51 1949.89,1694.06 1938.26,1667.58 C1926.38,1640.58 1912.41,1614.41 1898.03,1588.64 C1889.12,1572.64 1880.03,1556.79 1870.52,1541.15 L1870.27,1547.62 C1898.75,1521.96 1926.08,1491.28 1943.92,1457.23 C1956.65,1432.94 1963.04,1405.01 1959.75,1377.62 C1958.8468,1369.60652 1956.90726,1361.74417 1953.98,1354.23 C1953.46,1352.94 1952.78,1351.7 1952.28,1350.4 C1953.22,1352.85 1951.92,1348.59 1951.71,1347.73 L1940.6,1301.11 L1939.27,1305.23 C1945.82,1299.23 1948.97,1289.23 1950.7,1280.82 C1954.79,1260.89 1952.53,1239.92 1945.61,1220.88 C1943.57457,1215.22825 1941.0378,1209.76985 1938.03,1204.57 C1937.57,1203.77 1936.09,1200.75 1937.19,1203.2 C1937,1202.78 1936.83,1202.34 1936.67,1201.91 C1934.38,1195.84 1931.77,1189.91 1929.33,1183.91 L1876.41,1053.91 C1870.16,1038.56 1858.68,1025.09 1849.52,1011.36 L1843.89,1017.31 C1855.6,1025.94 1867.67,1034.14 1879.95,1041.95 C1889.13654,1047.96325 1898.66976,1053.42941 1908.5,1058.32 C1914.71,1061.32 1922.44,1065.22 1929.58,1064.7 C1948.34,1063.33 1931.73,1024.89 1928.51,1016.38 C1924.51,1005.92 1920.07,995.65 1915.25,985.56 C1914.37,983.71 1913.19,979.05 1913.7,983.66 C1913.51,981.93 1913.37,980.2 1913.11,978.47 C1910.11,958.19 1901.9,938.47 1890.91,921.29 C1873.23,893.61 1846.99,874.48 1818.07,859.81 C1775.59,838.26 1728.35,822.18 1681.8,811.89 C1648.86,804.6 1615.5,798.89 1582.39,792.38 C1580.89551,791.976303 1579.30655,792.532438 1578.39,793.78 L1546.02,838.63 C1545.03301,839.78093 1544.14328,841.011825 1543.36,842.31 C1542.36,844.42 1541.7,842.7 1544.11,842.31 C1543.11,842.45 1542.2,842.8 1541.23,842.93 C1535.69,843.67 1530.12,845.32 1524.66,846.49 L1393.1,874.75 L1355.1,882.91 C1349.63,884.09 1354.1,893.01 1359.19,891.91 L1359.19,891.67 Z" id="Shape" fill="#231F20" fill-rule="nonzero"></path>
            <path d="M1670.31,1993.58 C1670.31,1993.58 1670.63,2031.58 1661.47,2055.58 C1652.31,2079.58 1632.31,2079.58 1632.31,2079.58" id="Shape" stroke="#231F20" stroke-width="5"></path>
            <path d="M1690.31,2119.58 C1690.31,2119.58 1698.31,2155.58 1690.31,2175.58 C1682.31,2195.58 1651.31,2195.58 1651.31,2195.58" id="Shape" stroke="#231F20" stroke-width="5"></path>
            <path d="M1011.22,1276.08 L1064.9,1337.58 L1047.14,1467.58 L1077.04,1517.46 C1081.73712,1525.29768 1089.00136,1531.26878 1097.6,1534.36 L1105,1537.02 C1118.88793,1542.00765 1127.38249,1556.04286 1125.36,1570.66 L1110.83,1675.58 C1110.83,1675.58 1088.3,1787.58 1088.3,1821.58 C1088.3,1848.68 1076.69,1941.85 1071.97,1978.58 C1070.69461,1988.49571 1071.76324,1998.57235 1075.09,2008 L1136.9,2183.14 C1139.76236,2191.29252 1140.45165,2200.05006 1138.9,2208.55 L1118.25,2322.55" id="Shape" stroke="#231F20" stroke-width="7"></path>
            <path d="M1588.83,1381.58 L1651.31,1325.58 L1708.62,1312.43 C1711.07009,1311.86652 1713.57595,1311.58138 1716.09,1311.58 L1760.3,1311.58 L1792.3,1367.58 L1792.3,1367.58 C1792.30276,1372.69363 1789.15875,1377.28185 1784.38888,1379.12511 C1779.61902,1380.96836 1774.20664,1379.68665 1770.77,1375.9 L1754.05,1357.51 C1753.60242,1357.01216 1752.96446,1356.72784 1752.295,1356.72784 C1751.62554,1356.72784 1750.98758,1357.01216 1750.54,1357.51 L1734.96,1374.83 C1734.53056,1375.31107 1734.26757,1375.91771 1734.21,1376.56 L1732.29,1399.56 L1670.29,1413.56 L1658.34,1381.48 C1656.67516,1377.00896 1653.00272,1373.58248 1648.42719,1372.23106 C1643.85165,1370.87965 1638.90687,1371.76098 1635.08,1374.61 L1614.35,1390.03 C1613.05228,1390.99737 1612.28841,1392.5214 1612.29,1394.14 L1612.29,1411.94 C1612.29037,1412.99059 1612.6826,1414.00326 1613.39,1414.78 L1630.45,1433.55 C1630.92269,1434.07126 1631.1559,1434.76641 1631.09322,1435.46728 C1631.03054,1436.16815 1630.67768,1436.81089 1630.12,1437.24 L1608.84,1453.58 C1608.26067,1454.02502 1607.50074,1454.15958 1606.80383,1453.94055 C1606.10691,1453.72152 1605.56059,1453.17642 1605.34,1452.48 L1586.12,1391.32 C1585.05443,1387.82256 1586.11118,1384.0245 1588.83,1381.58 L1588.83,1381.58 Z" id="Shape" stroke="#231F20" stroke-width="5" fill="#231F20" fill-rule="nonzero"></path>
            <path d="M1606.31,1259.58 C1606.31,1259.58 1544.74,1281.66 1516.31,1311.58 C1487.88,1341.5 1472.31,1348.51 1472.31,1405.58 C1472.31,1462.65 1486.31,1465.58 1486.31,1465.58 L1524.04,1529.58 C1524.04,1529.58 1548.31,1569.51 1618.31,1583.58 C1688.31,1597.65 1718.31,1583.58 1718.31,1583.58 L1832.91,1525.45 C1847.11576,1518.24642 1855.67992,1503.28764 1854.7,1487.39 L1848.58,1387.88 C1848.40549,1385.07625 1847.39156,1382.38984 1845.67,1380.17 L1784.31,1301.06 L1633.53,1158.72 C1632.73676,1157.97015 1632.17464,1157.00899 1631.91,1155.95 L1615.09,1088.66 C1614.62981,1086.81301 1615.39811,1084.87816 1617,1083.85 L1668.91,1050.48 C1669.82337,1049.89134 1670.90825,1049.62717 1671.99,1049.73 L1736.32,1055.84 L1776.32,1139.57" id="Shape" stroke="#231F20" stroke-width="9"></path>
            <path d="M1446.31,1163.58 L1391.6,1119.81 C1388.30169,1117.18824 1383.8923,1116.43385 1379.91,1117.81 L1317.25,1139.29 C1316.63717,1139.50053 1316.08702,1139.86157 1315.65,1140.34 L1290.65,1167.74 C1281.58342,1177.66677 1282.12118,1193.02183 1291.86,1202.29 L1316.34,1225.61" id="Shape" stroke="#231F20" stroke-width="5"></path>
            <path d="M1472.31,1159.58 L1492.05,1111.87 C1494.5966,1105.68304 1492.99767,1098.5638 1488.05,1094.06 L1452.39,1061.45 C1448.45183,1057.84724 1443.30751,1055.84944 1437.97,1055.85 L1370.18,1055.85 C1363.91753,1055.84227 1358.00637,1058.74244 1354.18,1063.7 L1320.24,1107.7" id="Shape" stroke="#231F20" stroke-width="5"></path>
            <path d="M1248.62,1243.58 L1234.45,1317.22 C1229.87861,1340.97124 1244.74319,1364.13252 1268.24,1369.87 C1314.31,1381.12 1382.36,1397.58 1386.3,1397.58 C1389.62,1397.58 1395.99,1410.42 1401.03,1421.9 C1405.84912,1432.87406 1406.64927,1445.19481 1403.29,1456.7 L1363.35,1593.16 C1361.334,1600.04409 1360.63177,1607.24614 1361.28,1614.39 L1367.43,1682.02 C1367.96062,1687.87245 1365.09682,1693.51269 1360.05874,1696.53767 C1355.02066,1699.56265 1348.69623,1699.43923 1343.78,1696.22 L1271.03,1648.58 C1264.00978,1643.98661 1258.34987,1637.5946 1254.64,1630.07 L1197.41,1513.92 C1194.09934,1507.20059 1188.68004,1501.74968 1181.98,1498.4 L1143.62,1479.22 C1131.35932,1473.09136 1122.37503,1461.92763 1119.01,1448.64 L1086.73,1321.13 C1085.13893,1314.84337 1085.03962,1308.27183 1086.44,1301.94 L1109.19,1199.01 C1110.26966,1194.11905 1112.48234,1189.54982 1115.65,1185.67 L1184.3,1101.57 L1251.61,981.36 C1255.5928,974.248327 1263.73256,970.546963 1271.71,972.22 L1305.37,979.29 C1314.74626,981.243444 1322.58257,987.643092 1326.37,996.44 L1342.37,1033.56" id="Shape" stroke="#231F20" stroke-width="9"></path>
            <path d="M1374.31,952.77 C1374.31,952.77 1406.24,887.17 1488.31,887.17 C1567.81,908.17 1624.31,952.77 1624.31,952.77 C1624.31,952.77 1689.24,990.48 1670.31,1013.58 C1651.38,1036.68 1598.31,1049.58 1598.31,1049.58 L1536.31,998.06 C1536.31,998.06 1482.31,1005.48 1464.31,1013.58 C1446.31,1021.68 1388.31,998.06 1388.31,998.06" id="Shape" stroke="#231F20" stroke-width="5"></path>
            <path d="M1446.31,1188.17 L1446.31,1225.58 C1446.31,1225.58 1492.24,1245.16 1522.31,1213.67 C1535.49,1180.55 1522.31,1153.67 1522.31,1153.67 C1522.31,1153.67 1515.31,1099.67 1550.88,1075.67 C1582.38,1075.67 1584.31,1107.67 1584.31,1107.67" id="Shape" stroke="#231F20" stroke-width="5"></path>
            <path d="M1387.39,1129.26 L1398.22,1144.95 C1404.55522,1154.12293 1406.04645,1165.79928 1402.22,1176.27 L1402.22,1176.27 C1399.42235,1183.9235 1393.86063,1190.25223 1386.63,1194.01 L1376.63,1199.19 C1366.43857,1204.4919 1354.25898,1204.28878 1344.25,1198.65 L1326.45,1188.65 C1322.65039,1186.51151 1320.29945,1182.49007 1320.3,1178.13 L1320.3,1160.78 C1320.30164,1159.98435 1320.22459,1159.19049 1320.07,1158.41 L1316.3,1139.58" id="Shape" stroke="#231F20" stroke-width="5"></path>
            <path d="M1372.31,1134.67 L1389.58,1162.78 C1391.1,1165.21 1393.11,1167.92 1393.58,1170.78 L1395.89,1187.19" id="Shape" stroke="#231F20" stroke-width="5"></path>
            <rect id="Rectangle-path" stroke="#231F20" stroke-width="5" x="1352.89" y="1143.58" width="15.92" height="18.34" rx="1.25"></rect>
            <path d="M1711.37,1066.67 L1675.84,1108.99 C1672.72126,1112.70635 1672.99147,1118.19778 1676.46,1121.59 L1686.88,1131.79 C1689.48811,1134.33911 1692.66065,1136.23715 1696.14,1137.33 L1723.03,1145.79 C1732.21657,1148.66876 1742.22134,1145.46723 1748.03,1137.79 L1764.81,1115.58 L1736.28,1055.85" id="Shape" stroke="#231F20" stroke-width="5"></path>
            <path d="M1707.33,1092.25 L1717.51,1092.25 C1719.42091,1092.25 1720.97,1093.79909 1720.97,1095.71 L1720.97,1106.79 C1720.97028,1107.32321 1720.57794,1107.77525 1720.05,1107.85 L1706.73,1109.72 C1705.78255,1109.85296 1704.8239,1109.56947 1704.10116,1108.94258 C1703.37842,1108.31569 1702.96228,1107.40674 1702.96,1106.45 L1702.96,1096.58 C1702.97651,1094.17986 1704.92981,1092.24444 1707.33,1092.25 Z" id="Shape" stroke="#231F20" stroke-width="5"></path>
            <path d="M1724.97,1075.67 L1746.85,1101.1 C1746.93383,1101.19493 1747.00141,1101.30305 1747.05,1101.42 L1756.94,1126.05" id="Shape" stroke="#231F20" stroke-width="5"></path>
            <polyline id="Shape" stroke="#231F20" stroke-width="9" points="616.07 952.77 494.31 998.07 362.31 975.42 210.31 998.07 158.31 1013.58"></polyline>
            <path d="M692.6,1129.26 L741.43,1337.26 C742.084818,1340.0514 742.978099,1342.78143 744.1,1345.42 L800.31,1477.58 L812.97,1508.58 C817.440973,1519.54119 825.649605,1528.56466 836.14,1534.05 L836.14,1534.05 C850.011827,1541.29852 866.474454,1541.64627 880.64,1534.99 L941.27,1506.5 C942.603333,1505.87333 943.966667,1505.30333 945.36,1504.79 L1047.14,1467.58" id="Shape" stroke="#231F20" stroke-width="5"></path>
            <path d="M478.49,1533.44 C475.95,1532.53 478.01,1533.32 478.61,1533.56 C476.01,1532.56 477.73,1533.18 478.4,1533.51 C475.94,1532.3 480.58,1535.27 479.02,1533.95 C480.02,1534.82 481.02,1535.69 482.02,1536.61 C483.02,1537.53 481.02,1535.61 482.02,1536.61 C482.3,1536.9 482.59,1537.18 482.87,1537.48 C483.44,1538.09 484.02,1538.7 484.58,1539.33 C489.589081,1545.033 494.168306,1551.09964 498.28,1557.48 C510.68,1575.84 521.9,1594.97 533.9,1613.58 C566.43,1664.1 603.68,1712.18 651.2,1749.58 C679.44,1771.78 710.69,1790.17 744.2,1803.12 C762.512783,1810.19369 781.376382,1815.74909 800.6,1819.73 C810.713333,1821.82333 820.906667,1823.49 831.18,1824.73 C835.51,1825.24 841.18,1826.84 845.33,1825.44 C848.539196,1824.16044 851.616901,1822.57303 854.52,1820.7 C879.61,1806.09 898.42,1782.24 913.36,1757.82 C930.65,1729.56 943.71,1698.82 954.68,1667.59 C969.837044,1624.60786 981.390258,1580.43872 989.22,1535.54 C989.35,1534.79 989.48,1534.04 989.6,1533.29 C990.34,1528.7 976.9,1523.46 976.49,1526 C970.41,1563.46 960.77,1600.66 949.39,1636.82 C939.58,1667.98 927.95,1698.73 912.98,1727.82 C899.18,1754.63 882.23,1781.37 858.88,1800.92 C853.778852,1805.21427 848.322625,1809.06809 842.57,1812.44 C839.916152,1814.17343 837.099469,1815.64374 834.16,1816.83 C830.49,1818.07 823.86,1816.32 819.65,1815.77 C800.068506,1813.23222 780.745412,1808.99285 761.9,1803.1 C728.610021,1792.57818 697.268394,1776.67428 669.12,1756.02 C620.63,1720.63 582.8,1673.14 550.23,1623.21 C537.88,1604.27 526.33,1584.82 513.92,1565.92 C505.69,1553.37 496.92,1539.49 484.27,1530.92 C481.115487,1528.77328 477.697296,1527.04233 474.1,1525.77 C472,1525.02 469.16,1524.86 469.97,1527.67 C470.78,1530.48 476.08,1532.67 478.47,1533.49 L478.49,1533.44 Z" id="Shape" fill="#231F20" fill-rule="nonzero"></path>
            <path d="M1038.69,1582.42 C1035.18,1598.54 1031.41,1614.61 1027.59,1630.66 C1018.47,1669.02667 1008.76667,1707.25 998.48,1745.33 C986.25,1790.41 973.16,1835.33 958.08,1879.54 C945.48,1916.49 932.08,1954.09 912.6,1988.09 C905.340474,2001.1178 895.981487,2012.85877 884.9,2022.84 C869.71,2036.45 850.9,2053.01 828.9,2050.67 C822.26,2049.96 815.77,2048.24 809.09,2047.78 C799.761376,2047.27591 790.422649,2048.56588 781.58,2051.58 C759.85,2058.58 737.89,2057.22 715.89,2051.78 C685.41,2044.25 656.56,2030.57 629.17,2015.48 C594.76,1996.48 562.52,1974.21 530.68,1951.28 C508.68,1935.41 486.06,1920.11 464.9,1903.05 C449.43,1890.57 434.9,1876.75 424,1860.05 C412.15,1841.95 404.68,1821.44 399,1800.68 C390.29,1768.9 383.88,1735.89 383.44,1702.88 C382.93,1664.14 390.21,1621.39 413.17,1589.11 C414.210696,1587.59724 415.33233,1586.14179 416.53,1584.75 C416.82,1584.42 412.84,1581.6 412.1,1582.43 C407,1588.17 403.1,1595.23 399.63,1602.02 C390.21,1620.44 384.49,1640.67 381.51,1661.1 C376.74,1693.89 379.18,1727.22 385.58,1759.61 C390.64,1785.21 396.58,1811.09 407.17,1835.04 C415.024142,1852.81445 426.070023,1868.99858 439.76,1882.79 C455.4,1898.57 473.49,1911.79 491.45,1924.79 C548.31,1965.9 605.19,2008.57 669.78,2036.97 C693.96,2047.6 719.78,2056.78 746.29,2058.8 C756.48888,2059.72127 766.769047,2059.0465 776.76,2056.8 C786.85,2054.38 796.14,2050.49 806.67,2050.16 C820.91,2049.71 834.57,2055.99 848.67,2051.86 C859.35,2048.75 868.85,2041.97 877.47,2035.16 C886.31,2028.16 895.3,2020.73 902.47,2011.99 C911.93,2000.52 919.14,1987.17 925.7,1973.89 C934.4,1956.28 941.88,1938.06 948.85,1919.7 C965.5,1875.87 979.31,1830.96 992.19,1785.9 C1004.19,1743.76 1015.31,1701.34 1025.73,1658.76 C1031.48,1635.27 1037.06,1611.76 1042.3,1588.11 C1042.54667,1586.98333 1042.79333,1585.86 1043.04,1584.74 C1043.28,1583.64 1038.7,1582.01 1038.61,1582.42 L1038.69,1582.42 Z" id="Shape" fill="#231F20" fill-rule="nonzero"></path>
            <path d="M1062.51,2236.16 C1048.06,2240.82 1033.51,2245.26 1019,2249.66 C983.266667,2260.47333 947.38,2270.78 911.34,2280.58 C865.52,2293.01 819.46,2304.58 773.07,2314.69 C729.26,2324.2 685.01,2332.69 640.37,2337.14 C614.49,2339.74 588.71,2342.44 563,2346.45 C544.42,2349.35 525.93,2352.85 507.31,2355.45 C493.36,2357.45 479.31,2358.78 465.2,2357.45 C451.09,2356.12 437.65,2351.73 424.93,2345.76 C405.93,2336.86 388.44,2325.09 371.45,2312.94 C355.490007,2301.64694 341.182303,2288.18403 328.94,2272.94 C303.52,2241.14 285.47,2203.85 271.04,2165.94 C257.72,2130.94 247.44,2094.87 239.26,2058.38 C234.63,2037.72 230.58,2016.89 227.62,1995.92 C227.54,1995.33 227.1,1992.82 227.42,1994.49 C227.42,1994.24 227.35,1993.98 227.32,1993.73 C226.68,1988.66 216.7,1988.39 217.32,1993.33 C219.23,2008.42 221.98,2023.42 224.95,2038.33 C231.759064,2073.0849 240.740007,2107.37881 251.84,2141.01 C264.9,2180.21 281.21,2218.91 303.77,2253.65 C314.47,2270.14 326.77,2285.72 340.99,2299.3 C356.85,2314.4 375.63,2326.74 394.22,2338.21 C421.34,2354.95 450.22,2366.73 482.51,2365.56 C498.51,2364.98 514.4,2362.36 530.19,2359.72 C552.19,2356.04 574.19,2352.34 596.31,2349.52 C620.67,2346.42 645.18,2344.73 669.52,2341.42 C692.13,2338.34 714.63,2334.42 737.03,2330.08 C784.82,2320.78 832.21,2309.46 879.31,2297.2 C919.75,2286.67333 960.003333,2275.45667 1000.07,2263.55 C1021.57,2257.19 1043.07,2250.69 1064.4,2243.88 L1067.3,2242.95 C1068.34977,2242.64459 1069.19652,2241.86618 1069.58899,2240.84576 C1069.98145,2239.82535 1069.87455,2238.68015 1069.3,2237.75 C1067.87,2235.55 1064.75,2235.38 1062.52,2236.1 L1062.51,2236.16 Z" id="Shape" fill="#231F20" fill-rule="nonzero"></path>
            <path d="M1789.31,2322.58 L1656.31,2311.58 C1656.31,2311.58 1684.31,2307.58 1702.31,2281.58 C1720.31,2255.58 1712.31,2239.58 1712.31,2239.58" id="Shape" stroke="#231F20" stroke-width="5"></path>
            <path d="M817.49,1245.53 C815.43,1243.45 811.37,1244.92 809.05,1245.69 C808.31,1245.94 802.74,1248.16 804.72,1249.63 C805.470844,1250.06962 806.34954,1250.23901 807.21,1250.11 C809.491148,1249.93924 811.724826,1249.37066 813.81,1248.43 C815.23,1247.81 817.52,1246.69 817.46,1244.82 C817.38,1242.12 811.57,1243.82 810.38,1244.19 C808.38,1244.76 804.1,1245.94 804.32,1248.73 C804.571589,1250.28686 805.635388,1251.59087 807.11,1252.15 C810.11,1253.33 814.06,1252.01 816.8,1250.85 C818.86,1249.98 820.68,1248.74 820.95,1246.38 C821.138411,1244.73657 820.295782,1243.14671 818.83,1242.38 C818.045047,1242.1868 817.224953,1242.1868 816.44,1242.38 C815.162435,1242.58464 813.909216,1242.91973 812.7,1243.38 C812.28,1243.53 808.56,1245.04 809.7,1245.65 C811.002878,1246.46187 811.636305,1248.01921 811.27,1249.51 C811.196037,1249.86412 811.060661,1250.20256 810.87,1250.51 C810.773105,1250.66918 810.662698,1250.81974 810.54,1250.96 C812.082159,1249.47561 814.244555,1248.82428 816.35,1249.21 C816.556667,1249.21 816.603333,1249.21 816.49,1249.21 C816.287407,1249.14542 816.090146,1249.06518 815.9,1248.97 C815.56429,1248.81009 815.254231,1248.60114 814.98,1248.35 C814.411819,1247.82012 814.035494,1247.11671 813.91,1246.35 C813.863595,1245.94509 813.955205,1245.53637 814.17,1245.19 C807.736667,1245.19 805.573333,1245.85667 807.68,1247.19 C807.750495,1247.33786 807.794495,1247.49693 807.81,1247.66 C807.81,1248.02 807.61,1248.16 807.57,1248.47 C807.53,1248.78 807.35,1248.73 807.46,1248.65 C809.535034,1247.51817 811.856477,1246.91377 814.22,1246.89 C814.108679,1246.81896 813.987328,1246.76503 813.86,1246.73 C813.926538,1246.5558 814.02112,1246.39366 814.14,1246.25 C811.745198,1246.16803 809.389128,1246.87029 807.43,1248.25 C807.583668,1248.30787 807.725865,1248.39251 807.85,1248.5 C808.85,1249.5 811.77,1248.5 812.96,1248.19 C813.28,1248.1 818.04,1246.33 817.46,1245.75 L817.49,1245.53 Z" id="Shape" fill="#231F20" fill-rule="nonzero"></path>
            <path d="M824.82,1181.99 C858.201244,1182.22536 891.541843,1179.61593 924.48,1174.19 C926.04,1173.93 927.23,1173.61 926.18,1172.41 C925.13,1171.21 920.56,1172.12 919.33,1172.32 C888.922009,1177.3115 858.144063,1179.70349 827.33,1179.47 C826.33,1179.47 821.55,1179.37 821.23,1180.65 C820.91,1181.93 823.96,1181.98 824.8,1181.99 L824.82,1181.99 Z" id="Shape" fill="#231F20" fill-rule="nonzero"></path>
            <path d="M1967.27,1893.91 C2044.28999,1894.53325 2120.59732,1908.72705 2192.69,1935.84 C2194.22,1936.42 2198.03,1937.16 2199.1,1935.32 C2200.17,1933.48 2197.94,1931.95 2196.39,1931.32 C2122.64398,1903.53972 2044.58181,1888.96378 1965.78,1888.26 C1959.12,1888.2 1962.33,1893.83 1967.28,1893.87 L1967.27,1893.91 Z" id="Shape" fill="#231F20" fill-rule="nonzero"></path>
            <path d="M56.9,1145.28 C32.7847243,1160.47406 13.2709618,1181.95856 0.46,1207.42 C-2.11,1212.52 7.7,1212.88 9.84,1208.63 C21.6199844,1185.30744 39.4960104,1165.6103 61.57,1151.63 C67.07,1148.16 61.8,1142.23 56.9,1145.33 L56.9,1145.28 Z" id="Shape" fill="#231F20" fill-rule="nonzero"></path>
            <path d="M582.64,1217.33 L586.76,1286.48 C587.44,1297.94 588.88,1309.64 588.76,1321.12 C588.65,1328.8 583.76,1331.19 577.2,1333.22 C571.443645,1334.98981 565.590748,1336.42883 559.67,1337.53 C548.990783,1339.65872 538.104376,1340.56788 527.22,1340.24 C515.86,1339.74 507.54,1334.98 500.48,1326.24 C494.96,1319.42 490.38,1311.92 484.79,1305.15 C465.854711,1282.16941 441.186343,1264.59695 413.28,1254.21 C411.18,1253.42 407.88,1257 410.53,1258 C430.116665,1265.34218 448.156954,1276.28371 463.72,1290.26 C471.724641,1297.44921 478.999929,1305.41116 485.44,1314.03 C490.93,1321.4 495.67,1329.56 502.6,1335.72 C510.06,1342.35 519.2,1344.28 528.96,1344.31 C540.326376,1344.31104 551.661584,1343.12122 562.78,1340.76 C568.16,1339.63 573.5,1338.25 578.78,1336.59 C582.89,1335.29 587.25,1333.74 590.16,1330.38 C592.74,1327.38 593.42,1323.76 593.46,1319.93 C593.52,1313.84 592.81,1307.66 592.46,1301.58 L587.34,1215.63 C587.19,1213.14 582.59,1215.03 582.72,1217.32 L582.64,1217.33 Z" id="Shape" fill="#231F20" fill-rule="nonzero"></path>
            <path d="M83.05,1450.51 C105.555921,1468.40276 131.239654,1481.88248 158.75,1490.24 C171.6,1494.15 186.64,1498.75 200.21,1497.88 C214.88,1496.94 222.21,1483.43 228.89,1472.06 C260.82,1417.82 269.94,1353.06 282.32,1292.36 L306.18,1175.25 C306.44,1173.97 301.69,1172.55 301.49,1173.52 C288.7,1236.25 276.9,1299.25 262.9,1361.73 C256.62,1389.86 249.1,1417.9 237.45,1444.34 C231.967024,1456.97069 225.388566,1469.097 217.79,1480.58 C214,1486.24 209.61,1492.1 202.92,1494.44 C194.82,1497.28 185.4,1494.88 177.27,1493.22 C144.170117,1486.35331 113.156907,1471.77519 86.75,1450.67 C85.91,1450 81.16,1449.03 83.04,1450.52 L83.05,1450.51 Z" id="Shape" fill="#231F20" fill-rule="nonzero"></path>
            <path d="M1274.32,1447.3 C1281.65333,1459.49333 1288.47333,1471.96333 1294.78,1484.71 C1298,1491.22333 1301.08,1497.80667 1304.02,1504.46 C1305.1,1506.9 1307.84,1511.24 1306.13,1513.87 C1303.44,1518.01 1298.47,1512.74 1296.13,1510.87 C1289.47,1505.61 1280.26,1505.49 1275.46,1513.43 C1272.51,1518.3 1272.37,1524.5 1271.96,1530.01 C1271.38,1537.73 1271.11,1545.45 1271.08,1553.19 C1271.08,1554.92 1276.08,1555.38 1276.08,1553.84 C1276.08,1546.1 1276.38,1538.37 1276.96,1530.66 C1277.42,1524.61 1277.47,1517.04 1281.96,1512.36 C1288.54,1505.45 1293.27,1514.5 1299.27,1516.79 C1302.17,1517.9 1306.15,1518.37 1308.98,1516.79 C1313.29,1514.39 1311.27,1509.72 1309.74,1506.19 C1306.85,1499.52 1303.74,1492.93 1300.58,1486.41 C1294.05333,1473.07667 1286.95333,1460.03667 1279.28,1447.29 C1278.44,1445.88 1273.63,1445.96 1274.42,1447.29 L1274.32,1447.3 Z" id="Shape" fill="#231F20" fill-rule="nonzero"></path>
            <path d="M1455.23,1594.1 L1449.96,1625.37 L1447.32,1641.01 C1446.53,1645.69 1445.16,1650.79 1446.32,1655.51 C1449.14,1667.13 1463.98,1669.2 1473.83,1666.96 C1480.83,1665.37 1486.78,1661.2 1492.41,1656.96 C1496.04,1654.25 1499.57,1651.39 1503.41,1648.96 C1506.41,1647.03 1508.47,1645.54 1512.17,1646.21 C1515.17,1646.75 1515.24,1646.6 1516.23,1649.16 C1516.80525,1650.84776 1517.2827,1652.56728 1517.66,1654.31 C1520.1,1663.92 1520.58,1673.53 1522.1,1683.25 C1523.1,1689.81 1528.1,1691.6 1534.22,1690.6 C1550.54,1687.92 1565.12,1675.88 1572.98,1661.72 C1573.69,1660.45 1568.89,1660.28 1568.12,1661.66 C1564.49761,1668.26201 1559.58334,1674.06731 1553.67,1678.73 C1549.32166,1682.1461 1544.46649,1684.86216 1539.28,1686.78 C1536.01,1687.99 1530.41,1689.38 1528.12,1686.14 C1526.34,1683.62 1526.79,1679.27 1526.52,1676.35 C1526.1,1671.91 1525.48333,1667.49667 1524.67,1663.11 C1523.91185,1658.72439 1522.9103,1654.38435 1521.67,1650.11 C1520.86,1647.46 1519.93,1644.91 1517.28,1643.6 C1506.81,1638.4 1493.06,1652.87 1485.57,1658.19 C1479.29,1662.66 1472.43,1666.49 1464.45,1665.36 C1457.82,1664.42 1451.89,1660.26 1451.05,1653.26 C1450.51,1648.73 1451.78,1643.96 1452.53,1639.52 L1455,1624.86 L1460.27,1593.59 C1460.48,1592.37 1455.59,1592.43 1455.27,1594.12 L1455.23,1594.1 Z" id="Shape" fill="#231F20" fill-rule="nonzero"></path>
            <path d="M1165.59,1714.46 C1175.41622,1721.42673 1183.93957,1730.06856 1190.77,1739.99 C1194.15,1744.99 1196.84,1749.99 1193.37,1755.72 C1190.37,1760.72 1185.02,1764.97 1180.59,1768.72 C1171.77,1776.12 1162.02,1782.31 1152.22,1788.33 C1142.42,1794.35 1132.03,1799.77 1123.16,1806.94 C1114.6,1813.85 1122.06,1823.41 1128.95,1828.31 C1135.69,1833.1 1143.64,1835.75 1150.95,1839.5 C1159.82,1844.06 1167.13,1850.56 1168.59,1860.94 C1170.22,1872.52 1165.2,1884 1160.9,1894.45 C1156.6,1904.9 1152.39,1917.26 1155.9,1928.45 C1157.83,1934.5 1162.26,1937.87 1166.28,1942.45 C1168.07,1944.45 1169.84,1946.86 1169.86,1949.69 C1169.84838,1950.48033 1169.72378,1951.26494 1169.49,1952.02 C1169.25323,1952.7746 1168.91693,1953.49427 1168.49,1954.16 C1165.92333,1956.48667 1167.08333,1956.72 1171.97,1954.86 C1170.3,1954.21 1167.51,1955.01 1165.82,1955.34 C1165.33,1955.44 1161.89,1956.43 1162.49,1956.67 C1168.86,1959.17 1181.01,1955.57 1179.62,1947 C1178.75,1941.65 1172.95,1938.33 1169.78,1934.4 C1166.26896,1929.87073 1164.40657,1924.28001 1164.5,1918.55 C1164.26,1896.18 1188.79,1870.88 1174.65,1849.3 C1164.36,1833.58 1140.32,1834.87 1130.83,1818.5 C1127.09,1812.06 1129.49,1808.03 1135.2,1804.02 C1140.61,1800.22 1146.2,1796.72 1151.84,1793.26 C1162.37,1786.79 1173.07,1780.53 1183.02,1773.17 C1188.53419,1769.15145 1193.7144,1764.69359 1198.51,1759.84 C1203.41,1754.84 1206.79,1749.84 1203.27,1742.84 C1197.21,1730.77 1185.79,1720.42 1174.98,1712.7 C1173.79,1711.85 1170.15,1712.92 1168.83,1713.18 C1168.33,1713.28 1164.83,1714.05 1165.5,1714.51 L1165.59,1714.46 Z" id="Shape" fill="#231F20" fill-rule="nonzero"></path>
            <path d="M1156.11,2050.82 C1155.61,2059.35 1158.27,2084.67 1172.22,2081.13 C1178.96,2079.42 1183.08,2071.07 1186.83,2065.9 L1204.08,2042.12 L1201.64,2042.18 C1212.57,2047.3 1214.85,2060.26 1220.96,2069.53 C1222.88,2072.44 1226.04,2075.05 1229.42,2072.64 C1231.42,2071.23 1232.6,2068.05 1233.76,2066.01 L1240.01,2055.08 C1241.14,2053.08 1237.24,2050.01 1236.17,2051.88 L1231.37,2060.29 C1230.49,2061.84 1228.37,2067.44 1226.81,2068.15 C1223.16,2069.77 1219.66,2059.21 1218.42,2056.75 C1214.75,2049.45 1210.31,2042.45 1202.67,2038.87 C1202,2038.56 1200.8,2038.15 1200.23,2038.93 C1192.95,2048.93 1185.7,2059.04 1178.38,2069.05 C1176.90122,2071.281 1175.14368,2073.3141 1173.15,2075.1 C1170.7,2077.1 1168.36,2078.71 1164.91,2074.6 C1164.1105,2073.36443 1163.5004,2072.01616 1163.1,2070.6 C1160.93332,2064.75286 1160.04338,2058.50966 1160.49,2052.29 C1160.61,2050.22 1156.26,2048.08 1156.1,2050.81 L1156.11,2050.82 Z" id="Shape" fill="#231F20" fill-rule="nonzero"></path>
            <path d="M1274,2194.16 C1238.52488,2193.80591 1203.19457,2198.73321 1169.17,2208.78 C1167.88,2209.16 1167.65,2210.3 1167.9,2211.45 C1169.37,2217.98 1176.07,2221.38 1182.07,2222.82 C1191.44,2225.07 1201.71,2224.82 1211.29,2225.62 L1276.08,2230.73 L1270.35,2226.85 C1275.35,2242.19 1253.28,2254.85 1243.13,2262.04 C1229.12977,2271.91767 1214.42362,2280.75473 1199.13,2288.48 C1196.56,2289.78 1198.13,2292.48 1199.99,2293.64 C1217.04046,2304.63119 1235.30096,2313.62051 1254.41,2320.43 C1256.12,2321.04 1258.81,2320.85 1259.11,2318.68 C1259.41,2316.51 1256.02,2314.77 1254.43,2314.2 C1237.00818,2307.95938 1220.36209,2299.73532 1204.82,2289.69 L1205.68,2294.85 C1222.59568,2286.33677 1238.81568,2276.50646 1254.19,2265.45 C1265.69,2257.15 1284.98,2244.76 1279.45,2227.89 C1278.74,2225.74 1275.83,2224.17 1273.72,2224.01 L1220.89,2219.84 L1194.97,2217.84 C1190.23,2217.47 1178.37,2218.67 1176.97,2212.54 L1175.7,2215.21 C1209.1074,2205.38844 1243.79101,2200.59589 1278.61,2200.99 C1280.9,2200.99 1281.31,2198.9 1280.38,2197.26 C1279.18,2195.13 1276.24,2194.26 1273.99,2194.26 L1274,2194.16 Z" id="Shape" fill="#231F20" fill-rule="nonzero"></path>
            <path d="M1742.4,1620.07 C1750.47,1630.07 1762.84,1636.8 1775.92,1633.68 C1783.53,1631.87 1788.5,1627.08 1792.92,1620.88 C1797.34,1614.68 1802.86,1606.3 1811.54,1606.52 C1812.69677,1606.50525 1813.84623,1606.70531 1814.93,1607.11 C1813.46,1606.43 1814.93,1607.38 1815.43,1608.3 C1816.32,1609.87 1817.08,1611.51 1817.82,1613.16 C1819.43,1616.78 1820.82,1620.51 1822.15,1624.22 C1824.41,1630.32 1826.72,1636.46 1830.35,1641.9 C1837.47,1652.61 1849.35,1661.78 1862.89,1659 C1871.11,1657.31 1877.11,1652.15 1880.66,1644.65 C1884.21,1637.15 1888.66,1624.13 1899.66,1627.25 C1900.88,1627.6 1898.1,1624.04 1898,1623.92 C1896.67,1622.49 1895,1620.79 1893,1620.24 C1877.49,1615.84 1875.29,1639.98 1866.56,1647.09 C1861.27692,1651.32487 1854.49155,1653.21451 1847.78,1652.32 C1839.85,1651.23 1836.34,1646.27 1833.21,1639.42 C1828.11,1628.27 1825.8,1614.82 1816.84,1605.87 C1812.77,1601.8 1807.84,1598.55 1801.91,1599.87 C1794.56,1601.52 1790.28,1607.58 1786.15,1613.34 C1781.64,1619.64 1776.75,1624.87 1768.95,1626.7 C1762.46,1628.23 1751.87,1627.84 1747.32,1622.19 C1746.44,1621.1 1743.63,1617.62 1742.08,1617.78 C1740.53,1617.94 1741.43,1618.84 1742.41,1620.05 L1742.4,1620.07 Z" id="Shape" fill="#231F20" fill-rule="nonzero"></path>
            <path d="M1740.12,1196.93 C1743.97292,1212.38989 1752.80321,1226.15361 1765.25,1236.1 C1771.72031,1241.26846 1779.1055,1245.17308 1787.02,1247.61 C1790.08,1248.54 1794.39,1250.09 1797.44,1248.29 C1801.06,1246.16 1801.44,1240.35 1802.3,1236.73 L1810.7,1201.18 C1811.9,1196.08 1812.96,1190.92 1814.35,1185.87 C1815.35,1182.3 1816.93,1176.55 1820.65,1174.87 C1824.37,1173.19 1829.98,1180.56 1832.54,1183.09 C1836.32667,1186.83 1839.96333,1190.71333 1843.45,1194.74 C1850.55482,1202.92258 1856.98896,1211.66418 1862.69,1220.88 C1865.54,1225.49 1867.84,1230.46 1870.69,1235.04 C1872.25,1237.52 1874.16,1239.72 1877.35,1238.59 C1881.68,1237.05 1885.14,1229.83 1887.19,1226.2 C1890.06122,1221.02671 1892.31019,1215.53184 1893.89,1209.83 C1894.27,1208.49 1891.59,1205.09 1891.43,1205.66 C1888.85,1214.76 1884.43,1226.33 1877.12,1232.74 C1872.12,1237.1 1868.01,1226.8 1866,1223.37 C1863.63333,1219.33 1861.13667,1215.37 1858.51,1211.49 C1847.94337,1195.91622 1835.37953,1181.79577 1821.14,1169.49 C1821.01336,1169.35923 1820.82661,1169.30587 1820.65,1169.35 C1816.03,1171.16 1813.83,1175.35 1812.4,1179.89 C1810.24,1186.73 1808.96,1193.95 1807.31,1200.89 L1802.09,1222.99 L1799.37,1234.52 C1798.7,1237.37 1798.32,1240.95 1796.07,1243.04 C1792.07,1246.8 1783.51,1242.77 1779.18,1240.94 C1773.52661,1238.53884 1768.24099,1235.35064 1763.48,1231.47 C1753.06344,1223.12527 1745.655,1211.60884 1742.38,1198.67 C1742.07,1197.43 1739.38,1193.89 1740.1,1196.97 L1740.12,1196.93 Z" id="Shape" fill="#231F20" fill-rule="nonzero"></path>
        </g>
    </g>
</svg>
